<svg width="367" height="331" viewBox="0 0 367 331" fill="none" xmlns="http://www.w3.org/2000/svg">
<path d="M3.16171 228.989C3.16171 228.989 5.69597 217.696 18.7823 214.806C33.0097 211.664 82.25 211.412 82.25 211.412L145.436 220.104L177.174 229.715C177.174 229.715 177.922 233.702 179.174 242.075C180.427 250.441 181.205 303.742 181.205 303.742C181.205 303.742 165.34 319.526 149.764 305.728C149.764 305.728 153.083 321.238 138.7 326.202C127.948 329.907 122.961 320.348 119.271 315.332C115.581 310.315 91.3126 300.6 91.3126 300.6C91.3126 300.6 73.469 290.463 67.778 273.598C63.2282 260.104 29.3343 266.38 29.3343 266.38C29.3343 266.38 7.57814 277.681 3.1543 228.989H3.16171Z" fill="white"/>
<path d="M365.912 230.241C365.912 230.241 363.378 218.948 350.292 216.058C336.064 212.916 286.824 212.665 286.824 212.665L223.638 221.357L191.9 230.968C191.9 230.968 191.152 234.954 189.9 243.328C188.647 251.694 187.869 304.995 187.869 304.995C187.869 304.995 203.734 320.778 219.31 306.981C219.31 306.981 215.991 322.49 230.374 327.455C241.126 331.16 246.113 321.601 249.803 316.584C253.493 311.568 277.761 301.853 277.761 301.853C277.761 301.853 295.605 291.716 301.296 274.85C305.846 261.357 339.74 267.633 339.74 267.633C339.74 267.633 361.496 278.933 365.92 230.241H365.912Z" fill="white"/>
<path d="M225.318 250.901C226.259 259.563 212.231 261.097 206.014 261.512C202.161 261.231 202.621 252.242 202.991 248.67C203.45 244.269 203.517 238.096 204.384 233.531C204.518 232.813 205.088 232.257 205.814 232.138C210.564 231.36 216.596 230.145 220.872 232.39C224.747 235.154 224.977 243.424 220.538 245.662C222.984 246.307 224.969 248.426 225.318 250.908M209.838 242.038C209.838 242.283 209.838 242.52 209.853 242.72C209.853 243.246 209.749 243.995 209.801 244.513C213.343 244.484 221.724 243.439 217.648 237.333C216.263 235.258 213.558 235.443 210.623 236.777C209.623 237.237 209.816 240.467 209.831 241.564V242.031L209.838 242.038ZM219.768 251.042C219.264 247.255 212.461 246.973 209.808 248.848C209.097 250.96 209.186 253.027 209.445 255.732C209.831 258.14 219.931 254.339 219.76 251.042" fill="#171614"/>
<path d="M248.339 246.884C249.761 256.636 238.594 261.638 231.31 256.303C226.293 250.108 227.857 240.86 226.879 233.398C226.368 230.412 226.13 228.722 229.776 228.826C234.348 227.996 231.962 231.605 233.051 237.118C233.711 241.267 232.229 250.649 236.645 252.546C248.324 254.413 238.32 232.724 241.825 228.122C245.96 226.981 248.05 227.744 247.279 232.427C247.605 237.236 248.153 242.038 248.346 246.877" fill="#171614"/>
<path d="M288.291 260.215C288.595 264.313 271.062 262.987 269.047 260.712C265.683 258.533 261.54 243.535 257.761 243.231C258.043 246.996 258.88 254.169 258.932 257.896C258.05 259.067 254.115 259.615 253.248 258.163C252.885 251.42 251.915 241.134 251.351 234.421C251.551 231.746 250.203 228.396 251.633 226.04C257.079 225.514 263.408 224.076 268.38 227.033C273.463 231.39 271.633 240.875 264.993 242.572C266.386 246.314 269.98 253.472 273.122 255.777C278.354 259.63 287.891 257.34 288.298 260.208M260.169 237.548C263.815 238.252 267.061 235.154 264.252 231.931C262.711 230.056 259.547 231.079 257.45 231.086C256.487 231.835 257.561 233.835 257.354 235.021H257.317C257.42 235.199 257.361 235.554 257.368 235.784H257.324C257.302 236.37 257.413 237.103 257.442 237.681C258.324 237.6 259.302 237.614 260.184 237.555" fill="#171614"/>
<path d="M297.204 240.26C297.071 241.142 297.345 241.86 297.36 242.727C299.264 253.339 286.926 260.334 278.034 253.139C272.536 248.693 273.358 239.163 273.751 232.383C274.292 223.172 284.133 218.052 291.38 221.801C294.24 223.402 296.256 227.966 296.648 231.145C296.419 233.546 293.032 232.398 291.417 232.894C289.26 233.28 290.231 228.189 288.297 227.655C277.345 224.654 277.953 243.194 281.354 247.626C283.28 250.145 288.267 251.079 290.038 248.67C290.854 247.566 290.876 246.618 290.891 244.758C290.891 243.765 290.038 242.979 289.053 243.083C287.749 243.217 286.296 243.291 285.896 242.438C285.948 240.401 284.503 236.621 287.852 236.896C291.402 237.481 298.338 234.191 297.211 240.267" fill="#171614"/>
<path d="M328.697 246.18C329.193 247.722 330.016 250.3 328.467 250.774C323.665 252.257 310.824 254.272 302.91 252.353C300.731 251.827 300.531 251.382 300.702 249.522C300.316 242.957 300.264 239.607 299.783 234.687C298.345 219.963 300.101 219.704 313.365 220.334C319.382 220.623 317.322 224.039 316.952 227.003C316.633 229.559 310.557 227.418 306.97 227.003C306.059 226.899 305.288 227.655 305.37 228.566C305.466 229.73 305.585 231.182 305.644 232.286C305.689 232.998 306.289 233.539 307.008 233.494C309.364 233.346 314.047 233.072 314.032 233.153C316.53 232.894 317.915 232.664 317.411 235.747C317.715 238.281 317.493 238.985 314.81 238.874C312.313 239.022 309.186 239.252 307.037 239.393C306.43 239.43 305.978 239.956 306.015 240.556C306.103 241.934 306.185 243.394 306.267 244.795C306.311 245.558 306.993 245.876 307.734 246.091C314.121 247.959 325.133 245.306 325.044 245.328C326.956 244.876 328.43 244.372 328.704 246.165" fill="#171614"/>
<path d="M343.798 254.628C341.908 257.896 339.315 255.614 337.462 253.791C335.113 251.486 331.749 243.387 330.482 240.868C330.023 240.03 329.489 239.156 329.015 238.274C328.956 238.163 328.844 238.096 328.718 238.096H328.333C327.94 238.096 327.629 238.43 327.666 238.822C327.792 240.304 327.711 240.223 327.777 241.66C327.829 242.69 327.829 242.624 327.829 242.794C327.829 244.217 325.221 244.261 322.835 244.728C322.227 239.415 322.131 238.444 321.716 232.998C321.679 232.472 321.701 231.798 321.768 231.279C321.649 228.574 320.523 224.18 321.827 221.868C326.703 221.386 332.253 220.186 336.847 222.372C342.672 225.736 340.953 235.918 334.439 237.474C335.499 239.504 339.434 247.833 341.168 249.256C343.517 251.19 344.947 251.901 343.813 254.628M329.874 232.731C335.743 233.798 336.499 226.677 330.956 226.366C326.888 226.61 326.599 225.958 327.214 230.345H327.177C327.274 230.516 327.214 230.849 327.222 231.064H327.177C327.162 231.346 327.185 231.657 327.214 231.968C327.259 232.457 327.674 232.82 328.163 232.805C328.741 232.783 329.326 232.768 329.874 232.731Z" fill="#171614"/>
<path d="M9.5918 216.963L13.7415 266.996H38.6914C38.6914 266.996 62.5446 263.765 70.8217 275.466C79.0914 287.166 82.8335 300.319 82.8335 300.319C82.8335 300.319 114.423 310.797 118.447 315.088C122.47 319.378 131.696 328.707 131.696 328.707L144.034 327.277L149.288 313.309L148.939 305.477C148.939 305.477 165.138 316.436 175.201 307.922C185.264 299.408 180.455 282.601 180.455 282.601L178.343 241.831C178.343 241.831 181.003 228.997 161.099 224.187C141.188 219.371 84.2933 212.479 84.2933 212.479C84.2933 212.479 22.8856 209.426 9.59921 216.955" fill="white"/>
<path d="M135.642 330.996C125.764 330.996 117.65 321.534 114.797 318.207C112.974 316.08 108.75 313.346 102.889 310.5C97.5314 307.892 92.1146 305.839 89.1283 304.957C83.4818 303.297 76.9535 293.131 69.6249 281.015C68.2169 278.681 66.9943 276.665 66.0384 275.22C60.8068 267.299 51.7887 268.047 51.6998 268.055H51.559L16.346 269.478C15.027 269.522 13.7895 268.307 13.7377 266.988C13.6932 265.661 14.7603 264.313 16.0793 264.268L51.3292 263.268C52.4926 263.179 63.4596 262.608 70.0398 272.575C71.0476 274.094 72.2851 276.154 73.7227 278.525C78.065 285.706 86.1569 299.081 90.4695 300.348C96.5014 302.119 113.115 308.885 118.428 315.08C125.764 323.646 132.122 327.195 137.857 325.95C142.548 324.928 148.446 318.755 146.89 308.203C146.698 306.891 147.602 305.669 148.913 305.476C150.225 305.283 151.447 306.187 151.64 307.499C153.07 317.199 148.684 328.507 138.873 330.641C137.768 330.878 136.687 330.989 135.619 330.989" fill="#171614"/>
<path d="M180.45 303.498C180.45 303.498 180.398 303.498 180.369 303.498C179.042 303.453 178.005 302.342 178.049 301.015C178.064 300.578 179.48 257.066 178.338 241.831C177.931 236.414 173.559 232.086 165.348 228.967C158.776 226.47 152.195 225.78 152.129 225.773L152.032 225.758C144.645 224.706 138.672 223.861 133.67 223.157C112.603 220.186 108.802 219.645 89.8763 216.029C76.8344 213.539 37.4867 212.479 13.4334 218.541C12.144 218.867 9.92098 218.244 9.59494 216.955C9.26889 215.666 10.0914 213.998 11.3808 213.672C36.0565 207.455 77.3754 208.752 90.7729 211.316C109.58 214.91 113.359 215.443 134.33 218.407C139.324 219.111 145.282 219.956 152.655 221.008C154.448 221.193 181.836 224.328 183.125 241.475C184.289 256.97 182.903 299.385 182.844 301.178C182.799 302.475 181.732 303.498 180.443 303.498" fill="#171614"/>
<path d="M156.048 286.292C146.652 279.408 152.514 263.609 149.431 266.01C143.525 273.079 132.788 269.226 127.275 266.529C116.189 262.757 119.924 279.919 121.465 281.72C122.888 285.758 170.372 333.857 180.457 301.104" stroke="#171614" stroke-miterlimit="10" stroke-linecap="round"/>
<path d="M165.993 314.287C147.557 314.768 119.732 283.342 120.058 282.816C119.102 282.193 114.574 267.181 121.777 264.913C129.432 261.853 137.776 273.494 148.216 266.425C156.997 260.474 145.586 277.962 155.649 285.691C157.435 287.151 157.072 288.388 155.1 287.158C148.72 283.172 148.365 276.754 148.417 271.501C148.424 270.574 147.461 270.004 146.631 270.411C142.666 272.345 136.308 272.923 126.49 268.129C118.576 265.284 121.11 279.681 122.192 281.075C124.46 283.987 167.846 330.545 177.798 300.467C178.376 298.229 183.459 299.185 182.792 301.393C182.718 304.209 174.656 315.346 165.986 314.287" fill="#171614"/>
<path d="M49.2097 243.224C49.1801 253.102 37.8204 252.301 30.7734 251.983C26.4681 251.182 27.1572 242.831 27.172 238.2C27.1943 233.146 27.461 227.692 28.9875 222.891C29.2172 222.164 29.8619 221.66 30.6177 221.616C35.9456 221.327 41.933 220.608 46.5051 223.691C50.5362 227.285 49.7507 234.747 44.4747 236.718C47.1571 237.748 49.1282 240.386 49.2172 243.231M42.9408 242.69C42.8444 238.355 37.4869 239.548 34.6637 239.163C34.7748 240.986 33.6781 243.965 34.1598 245.706C36.8645 246.433 42.7259 246.41 42.9408 242.683M34.5081 230.723C34.4858 230.893 34.4858 230.923 34.471 231.16V231.501C34.4117 232.094 34.6488 233.346 34.6488 233.939C38.6503 234.347 45.5417 234.213 41.9775 228.463C40.5103 226.455 37.2053 227.3 35.0564 227.196C34.0264 227.9 34.6192 228.804 34.5006 230.219V230.73L34.5081 230.723Z" fill="#171614"/>
<path d="M89.1297 262.312C87.7885 268.907 74.1539 259.963 72.531 257.147C69.6114 252.093 70.271 240.215 66.3658 239.948C66.0916 243.586 65.9138 248.299 65.4321 251.878C64.4095 252.871 60.4673 253.227 59.8301 251.708C60.4451 245.209 61.075 237.103 61.4825 230.611C62.0531 228.084 61.0231 223.023 62.7274 220.971C68.0035 221.237 74.2576 220.771 78.5925 224.298C82.8311 229.189 79.9486 239.659 73.361 240.341C75.3617 243.92 75.7322 250.626 78.1479 253.827C81.6825 258.503 89.352 259.207 89.1223 262.297M69.4558 235.161C73.4944 235.583 76.2509 232.353 74.0279 228.862C72.8274 226.854 69.6485 227.373 67.6403 227.084C66.6178 227.655 67.1365 230.189 67.0772 232.049L67.0475 232.175C67.0327 232.338 67.0204 232.484 67.0105 232.612L66.9586 232.857C66.8549 233.412 66.8697 234.331 66.8178 234.887C67.67 234.939 68.6111 235.087 69.4558 235.154" fill="#171614"/>
<path d="M104.113 241.905C103.475 247.581 102.638 259.186 101.815 264.884C91.5968 269.834 97.762 250.242 97.5249 245.106C94.6498 244.61 88.4846 243.217 88.4846 243.217C87.2767 246.025 87.5879 250.768 88.0177 255.303C88.1066 256.222 87.1804 256.474 86.343 256.081C83.9422 254.955 83.1122 254.562 81.9785 253.154C81.7043 252.813 81.5635 252.405 81.5487 251.976C81.2523 244.64 80.3853 218.252 96.7987 221.75C105.913 222.661 105.224 235.229 104.12 241.905M98.2733 239.038C100.793 226.663 88.8328 225.136 89.1515 238.074C92.1896 238.43 95.2945 238.511 98.2733 239.038Z" fill="#171614"/>
<path d="M128.381 243.973C128.64 250.701 124.728 261.698 116.532 261.446C113.294 261.35 105.246 262.713 105.439 258.015C106.15 248.167 107.529 238.015 108.536 227.582C109.033 222.75 119.726 226.774 123.105 226.937C129.648 229.353 128.596 237.044 128.373 243.965M122.082 246.196C122.327 242.854 122.164 239.356 121.63 236.007C120.815 232.732 116.673 231.768 113.968 231.739C113.39 237.104 112.397 247.737 111.945 253.191C111.063 255.896 114.679 255.044 116.332 255.029C119.992 254.992 122.001 248.982 122.082 246.203" fill="#171614"/>
<path d="M146.259 257.243C145.963 258.562 146.341 260.222 145.429 261.4C142.443 261.578 138.612 261.919 135.581 261.845C133.15 261.311 128.275 259.207 129.734 255.205C130.357 245.795 131.78 239.474 132.35 230.893C134.633 228.203 148.452 227.847 149.112 231.441C150.653 239.837 141.353 235.991 136.87 236.399C136.818 237.643 136.611 240.193 136.441 241.371C138.901 242.327 148.793 240.333 146.822 244.928C147.319 250.107 138.36 246.091 135.863 246.758C135.729 248.722 135.218 254.101 135.055 256.08C137.463 256.858 145.281 254.828 146.259 257.228" fill="#171614"/>
<path d="M173.076 264.506C172.809 268.04 164.176 266.714 159.56 257.073C157.677 253.139 158.3 249.308 154.988 248.322C154.373 252.464 155.632 265.143 149.111 260.46C150.26 252.405 149.978 239.86 151.786 231.998C156.47 231.686 162.687 231.709 166.458 235.051C169.808 239.556 167.096 246.951 161.338 247.581C163.102 256.31 173.083 260.623 173.076 264.513M157.855 242.69C160.879 243.75 164.028 241.534 162.049 238.422C159.752 236.288 154.876 235.525 155.78 240.178H155.743C155.81 240.341 155.714 240.63 155.684 240.823H155.647C155.558 241.312 155.551 241.949 155.506 242.446C156.27 242.498 157.099 242.624 157.855 242.683" fill="#171614"/>
<path d="M58.7471 222.335C59.5771 219.675 56.0276 220.267 54.4048 220.112C53.6564 220.164 53.2785 221.853 53.1154 222.92C53.0413 223.387 53.3896 223.817 53.8564 223.854L57.7171 224.173C58.1543 224.21 58.5396 223.898 58.5989 223.461C58.6656 222.965 58.7397 222.394 58.7471 222.32" fill="#171614"/>
<path d="M57.641 225.684L53.6099 225.351C53.2023 225.314 52.8392 225.632 52.8318 226.04C52.7799 227.996 52.8318 229.952 52.5428 230.627C52.0908 236.184 51.0904 244.454 51.6462 250.812C54.9289 251.293 57.2705 252.649 56.937 248.137C57.5965 241.675 58.0041 233.591 58.4783 226.625C58.508 226.136 58.1449 225.714 57.6558 225.677" fill="#171614"/>
<path d="M16.1079 269.47C6.90451 269.47 5.8745 262.223 4.57032 253.094C4.0442 249.396 3.45139 245.209 2.30282 240.445C-1.59491 224.231 2.29541 219.163 3.11794 218.318C3.28096 218.155 6.83041 214.598 13.9145 213.094L14.989 218.17C10.0909 219.207 7.42322 221.408 6.91192 221.867C6.57847 222.401 4.31838 226.647 7.34912 239.237C8.54956 244.231 9.19424 248.744 9.70554 252.367C11.1357 262.445 11.8174 264.431 16.471 264.283L16.6118 269.47C16.4413 269.47 16.2709 269.477 16.1005 269.477" fill="#171614"/>
<path d="M231.964 330.996C241.842 330.996 249.956 321.534 252.809 318.207C254.632 316.08 258.855 313.346 264.717 310.5C270.074 307.892 275.491 305.839 278.477 304.957C284.124 303.297 290.645 293.131 297.981 281.015C299.396 278.681 300.612 276.665 301.567 275.22C306.799 267.299 315.817 268.047 315.906 268.055H316.047L351.26 269.478C352.579 269.522 353.816 268.307 353.868 266.988C353.913 265.661 352.846 264.313 351.527 264.268L316.277 263.268C315.113 263.179 304.146 262.608 297.566 272.575C296.558 274.094 295.321 276.154 293.883 278.525C289.541 285.706 281.449 299.081 277.136 300.348C271.104 302.119 254.491 308.885 249.178 315.08C241.842 323.646 235.484 327.195 229.748 325.95C225.058 324.928 219.159 318.755 220.716 308.203C220.908 306.891 220.004 305.669 218.693 305.476C217.381 305.283 216.158 306.187 215.966 307.499C214.535 317.199 218.922 328.507 228.733 330.641C229.837 330.878 230.919 330.989 231.986 330.989" fill="#171614"/>
<path d="M187.156 303.498C187.156 303.498 187.208 303.498 187.238 303.498C188.564 303.453 189.602 302.342 189.557 301.015C189.542 300.578 188.127 257.066 189.268 241.831C189.676 236.414 194.048 232.086 202.258 228.967C208.831 226.47 215.411 225.78 215.478 225.773L215.574 225.758C222.962 224.706 228.935 223.861 233.936 223.157C255.003 220.186 258.805 219.645 277.73 216.029C290.772 213.539 330.12 212.479 354.173 218.541C355.455 218.867 357.686 218.244 358.012 216.955C358.338 215.666 357.515 213.998 356.226 213.672C331.55 207.455 290.231 208.752 276.834 211.316C258.027 214.91 254.248 215.443 233.277 218.407C228.282 219.111 222.325 219.956 214.952 221.008C213.158 221.193 185.771 224.328 184.481 241.475C183.318 256.97 184.703 299.385 184.763 301.178C184.807 302.475 185.874 303.498 187.164 303.498" fill="#171614"/>
<path d="M211.557 286.292C220.953 279.408 215.092 263.609 218.175 266.01C224.081 273.079 234.818 269.226 240.331 266.529C251.416 262.757 247.682 279.919 246.14 281.72C244.718 285.758 197.234 333.857 187.148 301.104" stroke="#171614" stroke-miterlimit="10" stroke-linecap="round"/>
<path d="M201.611 314.287C220.047 314.768 247.872 283.342 247.546 282.816C248.502 282.193 253.03 267.181 245.827 264.913C238.172 261.853 229.829 273.494 219.388 266.425C210.607 260.474 222.018 277.962 211.963 285.691C210.177 287.151 210.54 288.388 212.511 287.158C218.891 283.172 219.247 276.754 219.195 271.501C219.188 270.574 220.151 270.004 220.974 270.411C224.938 272.345 231.296 272.923 241.114 268.129C249.028 265.284 246.494 279.681 245.412 281.075C243.152 283.987 199.758 330.545 189.807 300.467C189.229 298.229 184.145 299.185 184.812 301.393C184.886 304.209 192.948 315.346 201.618 314.287" fill="#171614"/>
<path d="M351.498 269.471C351.335 269.471 351.164 269.471 350.986 269.463L351.135 264.276C355.773 264.424 356.462 262.438 357.9 252.361C358.419 248.737 359.056 244.232 360.256 239.23C363.295 226.588 361.005 222.357 360.686 221.853C360.249 221.46 357.574 219.215 352.609 218.163L353.684 213.087C360.768 214.591 364.317 218.148 364.465 218.296C365.303 219.163 369.193 224.232 365.295 240.445C364.147 245.202 363.554 249.397 363.028 253.094C361.731 262.223 360.701 269.471 351.49 269.471" fill="#171614"/>
<path d="M240.48 129.508C240.48 107.804 212.351 90.2119 177.657 90.2119C142.963 90.2119 114.834 107.804 114.834 129.508C114.834 151.212 142.963 168.804 177.657 168.804C212.351 168.804 240.48 151.212 240.48 129.508Z" fill="white"/>
<path d="M258.687 143.135C258.687 131.671 223.548 122.379 180.199 122.379C136.85 122.379 101.711 131.671 101.711 143.135C101.711 154.598 136.85 163.89 180.199 163.89C223.548 163.89 258.687 154.598 258.687 143.135Z" fill="white"/>
<path d="M241.924 191.435C241.924 179.971 250.216 147.907 179.664 152.791C144.999 155.192 105.244 152.791 116.085 191.435C119.183 202.468 144.258 212.19 179.004 212.19C213.751 212.19 241.924 202.898 241.924 191.435Z" fill="white"/>
<path d="M178.488 213.65C170.922 213.954 163.341 214.347 155.79 213.65C146.091 212.754 136.539 211.19 127.869 206.366C116.865 200.238 109.922 190.901 110.996 178.245C111.278 174.888 111.856 173.903 112.634 171.85C113.071 170.694 113.167 169.975 113.701 168.901C110.24 166.544 109.203 162.913 110.337 159.616C110.893 158 112.204 156.607 112.056 156.541C111.233 156.17 110.93 156.059 109.01 155.125C105.298 153.31 102.171 150.761 100.896 146.552C98.9326 140.053 102.267 133.31 109.033 130.116C109.64 129.827 110.263 129.382 110.893 129.36C113.493 129.279 113.953 127.426 114.509 125.44C117.176 115.955 122.334 107.989 130.455 102.447C139.214 96.4741 148.699 91.9317 159.407 90.3311C165.965 89.353 172.537 88.5379 179.14 88.8046C193.13 89.3604 206.861 91.5612 219.762 97.3114C226.327 100.238 232.811 103.343 238.006 108.612C242.867 113.54 247.046 118.801 248.573 125.737C248.847 126.982 249.543 127.663 250.766 128.049C259.11 130.687 262.022 137.259 259.881 145.596C258.962 149.182 256.413 151.442 253.1 152.887C251.744 153.48 249.914 153.673 249.114 154.688C248.195 155.851 249.84 157.274 250.114 158.667C250.825 162.291 250.203 165.625 248.417 168.79C247.98 169.56 247.595 170.212 248.039 171.205C252.708 181.631 249.225 190.59 242.948 199.038C238.191 205.433 231.151 207.693 223.897 209.597C213.063 212.443 201.933 212.917 190.84 213.613C186.735 213.873 182.6 213.658 178.48 213.658M224.008 118.312C225.142 117.504 225.824 117.015 226.513 116.533C229.129 114.71 230.662 110.657 227.913 107.552C225.209 104.499 222.207 102.091 218.273 100.594C210.537 97.6449 202.593 95.659 194.412 94.918C180.288 93.6434 166.231 94.1029 152.508 98.1562C149.04 99.1788 145.542 100.246 142.274 101.758C139.162 103.195 136.487 105.463 133.894 107.737C130.759 110.479 128.136 113.651 126.683 117.623C124.898 122.506 125.868 125.285 130.188 128.012C130.233 128.041 130.181 128.241 130.166 128.419C128.106 128.582 125.994 128.241 123.964 128.886C122.815 129.257 121.141 129.508 120.993 130.635C120.829 131.835 122.452 132.413 123.505 132.91C127.506 134.792 131.848 135.459 136.146 136.229C138.806 136.704 141.533 136.8 144.416 137.645C141.259 137.645 138.436 137.756 135.62 137.623C131.093 137.408 126.572 137.371 122.052 137.815C121.185 137.897 120.326 138.112 120.066 138.942C119.792 139.801 120.2 140.653 120.874 141.298C121.63 142.009 122.578 142.395 123.549 142.669C127.306 143.736 131.144 144.373 134.998 144.966C140.785 145.855 146.506 147.159 152.352 147.641C157.465 148.063 162.571 148.523 167.684 148.945C178.777 149.864 189.818 148.967 200.829 147.745C206.906 147.07 212.937 145.996 218.999 145.166C222.4 144.699 225.816 144.373 229.225 143.973C230.766 143.795 232.115 143.099 232.241 141.498C232.374 139.809 230.662 139.727 229.529 139.312C227.283 138.49 224.927 138.097 222.163 137.734C223.734 137.23 224.942 137.193 226.135 137.037C229.521 136.6 233.041 136.6 235.931 134.369C236.494 133.94 237.487 133.577 237.28 132.769C237.05 131.865 236.25 131.198 235.264 130.961C233.545 130.538 231.826 130.464 230.047 130.716C225.564 131.346 221.074 131.153 216.583 130.753C217.435 130.442 218.302 130.346 219.147 130.153C224.186 128.997 229.358 128.345 234.012 125.833C235.827 124.855 237.206 123.647 236.924 121.454C236.665 119.468 234.782 119.282 233.323 118.682C230.462 117.511 227.513 118.001 224.001 118.312M177.473 208.515C186.683 208.582 193.693 208.293 200.696 207.633C208.469 206.907 216.265 206.403 223.919 204.766C227.654 203.965 230.825 202.105 233.249 199.112C234.99 196.948 235.131 194.495 233.99 192.072C232.923 189.797 231.04 188.886 228.417 188.864C224.512 188.827 220.792 189.479 217.102 190.657C214.049 191.635 210.907 191.991 207.721 191.368C206.943 191.22 205.913 191.101 205.809 190.22C205.698 189.212 206.661 188.797 207.513 188.486C207.832 188.367 208.136 188.241 208.462 188.145C212.041 187.13 215.687 186.485 219.421 186.611C226.053 186.833 232.219 185.233 237.984 182.002C238.888 181.498 239.51 180.72 240.029 179.823C240.555 178.912 240.651 178.023 240.007 177.185C239.354 176.34 238.473 175.844 237.354 176.066C235.901 176.363 234.427 176.592 233.019 177.037C220.918 180.846 208.417 181.661 195.864 182.017C191.003 182.157 186.128 181.92 181.266 182.091C177.665 182.217 177.776 181.335 172.611 181.49C162.341 181.461 166.735 180.868 158.399 180.631C154.464 180.134 151.863 179.445 147.58 179.016C144.075 178.156 139.999 177.682 135.287 176.503C132.174 175.592 129.329 174.888 125.298 173.576C120.259 171.998 118.399 171.561 116.25 170.687C114.864 172.791 114.605 178.534 114.953 180.95C116.45 191.235 121.83 198.697 131.522 202.639C137.599 205.114 144.097 205.796 150.611 206.552C160.274 207.678 169.914 208.76 177.473 208.515ZM179.651 152.798C169.625 152.932 159.258 152.784 148.884 151.717C139.881 150.79 130.989 149.412 122.304 147.011C117.117 145.574 112.501 143.054 113.034 136.348C113.13 135.162 112.456 135.34 111.789 135.829C110.463 136.793 109.359 137.978 108.521 139.386C106.861 142.18 107.625 145.522 110.329 147.352C112.686 148.953 115.176 150.235 117.969 150.931C121.578 151.828 125.031 153.095 128.099 155.311C129.351 156.215 130.789 156.83 132.234 157.415C134.864 158.482 137.45 158.304 139.822 156.941C146.32 153.213 152.656 153.591 158.955 157.356C160.059 158.015 161.126 158.734 162.274 159.305C168.521 162.402 174.568 163.625 180.318 158.052C182.963 155.488 186.424 154.644 190.099 155.266C192.582 155.688 194.79 156.785 196.932 158.141C200.311 160.283 204.008 161.476 208.076 160.542C211.003 159.868 213.167 157.793 215.449 156.052C220.288 152.354 225.52 151.887 231.137 153.673C233.656 154.473 236.227 154.903 238.88 154.903C240.674 154.903 242.096 154.458 243.186 152.85C244.875 150.361 246.913 148.345 250.21 147.93C251.937 147.708 253.441 146.596 254.59 145.188C256.546 142.78 256.227 139.571 253.782 137.674C252.774 136.889 251.64 136.266 250.596 135.525C249.143 134.495 248.35 134.592 248.491 136.63C248.55 137.556 247.906 138.267 247.476 139.016C245.283 142.802 241.681 144.781 237.813 146.322C228.113 150.183 217.858 151.272 207.572 151.961C198.414 152.576 189.232 152.984 179.666 152.813" fill="#1D1D1B"/>
<path d="M49.6077 204.328C48.0294 204.61 46.9771 204.454 45.9101 203.387C44.2799 201.757 46.5325 198.956 48.4518 197.681L72.6384 182.853C75.9656 181.394 76.0989 177.192 71.6677 176.37L26.2288 163.869C24.6949 163.409 23.3907 162.253 22.9906 160.697C22.3607 158.281 23.7686 155.932 26.0287 155.265L73.2461 141.216C76.0323 140.386 76.751 136.77 74.4984 134.94L36.3955 104.002C34.9876 102.861 34.2762 100.994 34.7727 99.2449C35.3729 97.1182 37.3514 95.7696 39.53 95.9993L88.5257 101.083C91.4157 101.386 93.4683 98.3187 92.0826 95.7622L68.7111 52.5834C67.9256 51.131 67.8885 49.3377 68.7777 47.9446C70.0819 45.9142 72.6532 45.3066 74.6762 46.3959L117.996 69.849C120.552 71.2346 123.62 69.1895 123.316 66.2921L118.233 17.2963C117.996 15.0066 119.545 12.8577 121.931 12.4427C123.553 12.1611 125.198 12.8873 126.236 14.1692L157.173 52.2795C159.011 54.5396 162.62 53.8208 163.45 51.0272L177.499 3.80989C178.062 1.92031 179.796 0.623535 181.767 0.623535C183.738 0.623535 185.48 1.92031 186.036 3.80989L200.085 51.0272C200.915 53.8134 204.531 54.5322 206.362 52.2795L237.41 14.0359C238.655 12.502 240.752 11.9684 242.575 12.7317C244.398 13.4875 245.502 15.3475 245.302 17.3111L240.218 66.3069C239.915 69.2043 242.982 71.2495 245.539 69.8638L288.703 46.4922C290.155 45.7068 291.949 45.6623 293.349 46.5515C295.387 47.8483 295.995 50.427 294.898 52.45L271.445 95.7696C270.059 98.3261 272.104 101.394 275.002 101.09L323.997 96.0067C326.176 95.7844 328.154 97.133 328.755 99.2523C329.244 101.001 328.54 102.868 327.132 104.01L289.022 134.947C286.761 136.785 287.48 140.393 290.266 141.223L337.321 155.228C338.899 155.703 340.203 156.94 340.559 158.548C341.085 160.905 339.692 163.165 337.484 163.817L284.842 179.482L308.347 190.923C309.711 191.59 310.993 192.412 312.163 193.376C314.549 195.332 316.298 197.222 315.95 198.103C315.031 200.43 313.067 199.882 307.317 198.348C306.458 198.118 305.613 197.807 304.805 197.422L271.889 181.705C270.163 180.579 269.4 178.385 270.155 176.377C270.659 175.036 271.83 174.065 273.201 173.65L308.918 163.024C312.363 161.994 312.363 157.111 308.918 156.088L273.045 145.41C271.148 144.847 269.815 143.083 269.859 141.023C269.889 139.675 270.585 138.43 271.63 137.585L300.567 114.087C303.36 111.82 301.493 107.307 297.914 107.678L260.685 111.546C259.033 111.716 257.44 110.96 256.521 109.589C255.602 108.219 255.52 106.448 256.306 104.995L274.12 72.0794C275.832 68.9153 272.378 65.4622 269.214 67.1739L236.299 84.9953C234.854 85.7807 233.075 85.6992 231.704 84.7804C230.333 83.8615 229.578 82.2609 229.748 80.6159L233.609 43.3874C233.979 39.8083 229.466 37.9409 227.199 40.7346L203.605 69.7971C202.568 71.079 200.908 71.6793 199.278 71.3606C197.655 71.042 196.351 69.849 195.876 68.2632L185.198 32.3908C184.168 28.945 179.285 28.945 178.262 32.3908L167.584 68.2632C167.11 69.849 165.799 71.042 164.183 71.3606C162.553 71.6793 160.893 71.079 159.856 69.7971L136.269 40.742C134.002 37.9484 129.489 39.8157 129.859 43.3948L133.728 80.6233C133.898 82.2683 133.142 83.8689 131.771 84.7878C130.4 85.7066 128.629 85.7881 127.177 85.0027L94.2612 67.1813C91.0971 65.4696 87.6439 68.9227 89.3557 72.0868L107.177 105.003C107.963 106.455 107.881 108.226 106.962 109.597C106.043 110.968 104.443 111.716 102.798 111.553L65.5692 107.685C61.9901 107.315 60.1227 111.827 62.9163 114.095L91.8529 137.592C92.8977 138.437 93.5943 139.689 93.6239 141.031C93.661 143.091 92.3271 144.854 90.4375 145.417L54.5651 156.095C51.1194 157.125 51.1194 162.009 54.5651 163.031L90.4375 173.702C92.0974 174.198 93.3201 175.606 93.572 177.311C93.8314 179.022 93.0756 180.727 91.6306 181.683L52.4532 203.424C51.1639 203.98 50.5859 204.046 49.5929 204.358" fill="#F8D34B"/>
</svg>
