<svg width="140" height="140" viewBox="0 0 140 140" fill="none" xmlns="http://www.w3.org/2000/svg">
<g clip-path="url(#clip0_583_914)">
<path d="M28.1335 22.8042L31.1664 14.0212C32.5658 9.97005 36.7314 7.5633 40.9405 8.38007L50.0611 10.1443C52.6584 10.6452 55.3429 9.92649 57.3412 8.19494L64.36 2.10727C67.5999 -0.702423 72.4079 -0.702423 75.6478 2.10727L82.6666 8.19494C84.665 9.92649 87.3494 10.6452 89.9467 10.1443L99.0673 8.38007C103.276 7.56875 107.442 9.97005 108.841 14.0212L111.874 22.8042C112.74 25.3036 114.7 27.2693 117.2 28.1296L125.983 31.1625C130.034 32.5619 132.441 36.7275 131.624 40.9366L129.86 50.0572C129.359 52.6545 130.077 55.339 131.809 57.3373L137.897 64.3561C140.706 67.596 140.706 72.404 137.897 75.6439L131.809 82.6627C130.077 84.661 129.359 87.3455 129.86 89.9428L131.624 99.0634C132.435 103.273 130.034 107.438 125.983 108.837L117.2 111.87C114.7 112.736 112.735 114.696 111.874 117.196L108.841 125.979C107.442 130.03 103.276 132.437 99.0673 131.62L89.9467 129.856C87.3494 129.355 84.665 130.074 82.6666 131.805L75.6478 137.893C72.4079 140.702 67.5999 140.702 64.36 137.893L57.3412 131.805C55.3429 130.074 52.6584 129.355 50.0611 129.856L40.9405 131.62C36.7314 132.431 32.5658 130.03 31.1664 125.979L28.1335 117.196C27.2677 114.696 25.3075 112.731 22.8082 111.87L14.0251 108.837C9.97396 107.438 7.5672 103.273 8.38398 99.0634L10.1482 89.9428C10.6492 87.3455 9.9304 84.661 8.19884 82.6627L2.11118 75.6439C-0.698517 72.404 -0.698517 67.596 2.11118 64.3561L8.19884 57.3373C9.9304 55.339 10.6492 52.6545 10.1482 50.0572L8.38398 40.9366C7.57265 36.7275 9.97396 32.5619 14.0251 31.1625L22.8082 28.1296C25.3075 27.2638 27.2732 25.3036 28.1335 22.8042Z" fill="#CAEAE9"/>
<path d="M104.106 43.9644C111.065 43.9644 115.318 48.1299 115.318 54.8437V69.6491H107.684V55.1269C107.684 52.4315 106.377 50.9178 104.106 50.9178C101.835 50.9178 100.529 52.4315 100.529 55.1269V69.6491H92.8945V54.8437C92.8945 48.1244 97.1472 43.9644 104.106 43.9644Z" fill="black"/>
<path d="M26.1429 41.9331C25.1737 40.9094 24.6836 39.6679 24.6836 38.1978H35.4269C35.4269 39.0145 35.2145 39.8367 34.7898 40.6535C34.3651 41.4703 33.7389 42.1455 32.9221 42.6737C32.1053 43.2018 31.147 43.4687 30.0579 43.4687C28.419 43.4687 27.1176 42.9568 26.1429 41.9331ZM25.9632 44.4923H34.1472V69.6598H25.9632V44.4923Z" fill="black"/>
<path d="M36.1929 69.0935V62.2926C37.3854 62.8752 38.5616 63.2836 39.7214 63.5177C40.8812 63.7573 41.9866 63.8771 43.0484 63.8771C44.1102 63.8771 44.9324 63.7845 45.5314 63.5939C46.1303 63.4088 46.4244 63.0059 46.4244 62.3906C46.4244 61.9114 46.2174 61.5302 45.8091 61.2416C45.4007 60.953 44.426 60.5011 42.8959 59.8858C40.3367 58.8294 38.5888 57.7023 37.6522 56.5098C36.7157 55.3173 36.2474 53.8526 36.2474 52.1101C36.2474 49.1099 37.3637 47.0026 39.5962 45.7938C41.8287 44.585 44.6874 43.9751 48.1614 43.9751C50.4102 43.9751 52.1853 44.2147 53.4813 44.6939L53.2253 50.885C51.3468 50.4766 49.7132 50.2697 48.3138 50.2697C47.0179 50.2697 46.0813 50.3786 45.4987 50.6018C44.9161 50.8251 44.6275 51.1572 44.6275 51.5983C44.6275 51.974 44.8344 52.3062 45.2428 52.5948C45.6512 52.8833 46.6422 53.3353 48.2104 53.9506C49.9855 54.6694 51.3359 55.3554 52.2779 56.0197C53.2145 56.6841 53.8733 57.4355 54.249 58.2686C54.6247 59.1017 54.8099 60.1526 54.8099 61.4159C54.8099 64.6557 53.6991 66.9427 51.4829 68.2713C49.2667 69.5999 46.2828 70.2642 42.5311 70.2642C40.108 70.2642 37.9953 69.8722 36.1875 69.0881L36.1929 69.0935Z" fill="black"/>
<path d="M55.0195 45.2547H68.1151V50.776H55.0195V45.2547ZM57.4753 39.167H65.6593V69.6543H57.4753V39.167Z" fill="black"/>
<path d="M71.3876 68.2224C69.4763 66.9264 68.5234 64.9662 68.5234 62.3416C68.5234 60.0601 69.411 58.089 71.1807 56.4336C72.9558 54.7783 76.4298 53.7328 81.6136 53.2863L82.7897 53.1829L82.2779 53.6947C82.071 52.4696 81.5537 51.6474 80.7151 51.239C79.8766 50.8306 78.8311 50.6237 77.5678 50.6237C76.5441 50.6237 75.3789 50.8034 74.0666 51.1627C72.7543 51.5221 71.5673 51.9741 70.5109 52.5186L70.1515 46.5344C71.1752 45.8156 72.4929 45.2275 74.1156 44.7701C75.7328 44.3128 77.2629 44.0786 78.695 44.0786C81.2161 44.0786 83.3342 44.3835 85.0385 44.9988C86.7429 45.6141 88.0824 46.7195 89.0516 48.3258C90.0209 49.9267 90.5109 52.181 90.5109 55.0778V68.7342L86.4706 69.551C83.8461 69.9594 81.3576 70.1663 79.0053 70.1663C75.8363 70.1663 73.2934 69.5183 71.3821 68.2224H71.3876ZM82.3868 57.0707L82.8986 57.5336L81.57 57.686C78.3301 58.0617 76.7129 59.2379 76.7129 61.2145C76.7129 62.3089 77.0342 63.1094 77.6822 63.6158C78.3301 64.1276 79.1632 64.3835 80.1869 64.3835C81.1398 64.3835 81.9947 64.144 82.7462 63.6648L82.3868 64.2801V57.0653V57.0707Z" fill="black"/>
<path d="M43.9113 98.3119C41.5971 100.517 38.3791 101.617 34.2571 101.617C32.9557 101.617 31.7741 101.563 30.7123 101.454C29.6505 101.345 28.409 101.176 26.9769 100.953L25.9805 100.811V71.7124H34.1482V79.842L31.8286 78.3228C32.874 78.1976 33.9848 78.1322 35.1555 78.1322C39.1795 78.1322 42.2233 79.1069 44.2816 81.0563C46.3398 83.0056 47.3744 85.7554 47.3744 89.3057C47.3744 93.1118 46.2146 96.1121 43.9059 98.3174L43.9113 98.3119ZM34.4041 83.8823C33.8977 83.8823 33.5002 83.8986 33.2171 83.9313L34.1536 82.0745V97.86L33.3096 95.769C34.8942 95.769 36.152 95.524 37.0886 95.0339C38.0251 94.5439 38.6894 93.8523 39.0869 92.9648C39.4844 92.0772 39.6804 90.9664 39.6804 89.6378C39.6804 85.8044 37.9217 83.8823 34.4041 83.8823Z" fill="black"/>
<path d="M52.0422 99.0251C49.7607 97.1683 48.6172 94.0864 48.6172 89.7793C48.6172 85.9132 49.6681 82.9184 51.7808 80.7948C53.8881 78.6712 56.7631 77.6094 60.4114 77.6094C64.0596 77.6094 66.7822 78.535 69.0637 80.3918C71.3452 82.2486 72.4887 85.3306 72.4887 89.6377C72.4887 93.5037 71.4323 96.4986 69.3251 98.6222C67.2178 100.746 64.3428 101.808 60.6945 101.808C57.0463 101.808 54.3237 100.882 52.0422 99.0251ZM63.6893 93.7978C64.419 92.8612 64.7838 91.5217 64.7838 89.7793C64.7838 88.0368 64.4353 86.632 63.7383 85.6682C63.0414 84.7044 61.9959 84.2198 60.6019 84.2198C59.208 84.2198 58.1462 84.6881 57.4165 85.6246C56.6869 86.5612 56.3221 87.9007 56.3221 89.6431C56.3221 91.3856 56.6706 92.7904 57.3675 93.7542C58.0645 94.7235 59.11 95.2026 60.5039 95.2026C61.8979 95.2026 62.9597 94.7343 63.6893 93.7978Z" fill="black"/>
<path d="M74.8876 90.2043C73.6679 86.5288 72.7694 82.4069 72.2031 77.8438H80.3327C80.7465 81.0129 81.4163 84.2963 82.3529 87.6832C83.2894 91.0755 84.3077 93.8961 85.4185 96.1449L84.2314 101.519H80.5723C78.0022 97.6533 76.1127 93.8798 74.893 90.2043H74.8876ZM88.9143 94.6475C87.8198 97.2612 86.5783 99.5536 85.1789 101.519H83.6107L82.9464 94.7183C84.1498 92.023 85.3096 88.6306 86.4149 84.5413C86.9867 82.4504 87.3951 80.8822 87.651 79.8367L91.6423 86.3491C90.9126 89.2677 90.0033 92.0284 88.9088 94.6475H88.9143ZM90.3191 95.1485C89.5895 93.2808 89.0014 91.0428 88.5603 88.4455L87.5149 85.5923C87.0411 84.5468 86.562 83.2563 86.0882 81.7153C85.6145 80.1798 85.3096 78.8838 85.1843 77.8384H93.7931C94.2342 81.0401 94.9257 84.3344 95.8623 87.7268C96.7988 91.1191 97.8007 93.9233 98.8789 96.1449L97.5012 101.519H93.6515C92.1596 99.1398 91.0542 97.0162 90.3246 95.1485H90.3191ZM98.7591 86.8991C99.5377 83.8389 100.115 80.8223 100.496 77.8438H106.676C106.36 81.5846 105.457 85.7611 103.965 90.3731C102.473 94.9851 100.687 98.7042 98.5903 101.525H96.8805L96.0746 94.7238C97.0874 92.5675 97.9859 89.9647 98.7591 86.9045V86.8991Z" fill="black"/>
<path d="M107.68 71.5654H115.287V101.378H107.68V71.5654Z" fill="black"/>
</g>
<defs>
<clipPath id="clip0_583_914">
<rect width="140" height="140" fill="white"/>
</clipPath>
</defs>
</svg>
