<svg width="314" height="194" viewBox="0 0 314 194" fill="none" xmlns="http://www.w3.org/2000/svg">
<g clip-path="url(#clip0_563_228)">
<path d="M2.15855 13.4441L12.0749 12.1896C13.5445 12.0022 14.8228 13.1802 14.7692 14.6566C14.2411 29.1183 14.2449 43.603 14.2411 58.0724C14.2411 60.1034 16.6063 61.2126 18.1678 59.916L58.0167 26.8196C59.429 25.7716 61.3082 26.1579 62.4831 27.466C64.4733 29.6844 69.4831 34.3622 65.7401 37.139L28.3137 68.9006C26.5073 70.2507 26.6259 72.997 28.5472 74.1827L49.2218 86.9424C50.7183 87.868 51.1928 89.8263 50.2781 91.3256L46.8413 96.9711C45.9189 98.4896 43.9364 98.96 42.4247 98.0306L19.469 83.8519C17.299 82.5132 14.509 84.1426 14.5932 86.6861C14.3061 91.1918 14.0727 89.9219 13.7933 95.4373C13.7244 96.7875 12.5533 97.8164 11.2061 97.7055L3.37561 97.0744C2.13942 96.9749 1.18261 95.946 1.17113 94.7068C0.91088 66.1237 0.97977 42.249 2.16238 13.4365" fill="#161B1D"/>
<path d="M67.0957 56.0835C69.2848 56.443 70.7239 58.5161 70.4062 60.7154C69.8015 64.9571 69.4953 69 69.4953 72.8478C69.4953 77.3496 69.8283 81.5493 70.7085 85.1485C76.1432 107.489 91.7161 94.1904 97.3077 77.9463C99.2136 71.7118 100.304 69.2524 100.048 63.0256C99.8413 57.9768 98.1688 51.05 101.533 48.8163C104.476 47.0569 107.944 45.0144 110.73 45.5155C117.293 48.2846 112.888 75.6667 110.661 81.7635C105.119 102.62 79.4767 125.221 63.2531 103.347C55.2007 91.2262 54.6457 73.4254 56.5632 58.5697C57.2214 53.4138 63.8196 55.6283 67.0957 56.0912" fill="#161B1D"/>
<path d="M140.857 82.9801C139.602 84.5138 136.039 89.4594 143.093 89.402C155.963 89.2987 164.226 88.113 175.934 87.8415C188.755 87.5355 188.323 89.708 182.012 98.9641C181.15 100.226 180.312 101.217 177.009 101.217L169.573 100.812C151.834 100.23 142.878 100.012 117.416 100.597C115.782 100.632 111.836 99.534 114.189 96.2867C133.023 70.3237 144.93 65.2443 158.945 50.553C161.149 48.2467 161.44 45.6725 156.844 46.6976C150.502 48.109 126.035 52.1174 122.001 48.304C119.976 45.8829 118.185 42.0887 122.215 38.719C126.241 35.3455 133.785 35.3416 133.785 35.3416C164.552 33.6396 167.38 33.5516 187.048 33.0238C189.115 32.9702 191.124 35.552 189.765 37.1087C172.776 56.5351 154.486 66.3191 140.865 82.9839" fill="#161B1D"/>
<path d="M247.75 79.0597C253.372 90.06 222.314 92.68 215.808 92.6915C204.154 92.7374 193.101 89.1191 187.667 78.6313C177.345 53.1043 199.164 21.9433 225.579 22.7847C238.232 23.1481 251.524 29.7345 255.171 42.4177C255.772 45.4967 258.248 51.8115 256.771 55.8238C255.577 58.9487 248.581 59.7481 246.92 60.0999C237.761 61.6605 214.939 67.7994 203.55 72.3624C211.878 80.5476 228.675 75.9272 238.768 72.458C243.885 70.6871 246.078 75.1201 247.746 79.0559M199.106 58.5432C200.794 63.9669 238.121 46.9731 240.861 43.9361C241.642 40.8074 235.614 37.7781 232.388 36.9482C219.697 32.0332 193.916 41.8937 199.102 58.5432" fill="#161B1D"/>
<path d="M261.191 56.2827C261.249 55.5636 261.838 55.0014 262.561 54.9708L271.751 54.5271C273.637 55.0779 273.599 58.2793 273.289 60.0349C313.111 39.4189 318.351 67.6922 311.416 103.114C311.102 105.18 309.15 106.637 307.076 106.331C303.869 105.769 298.235 106.032 298.859 101.183C300.29 87.8721 304.745 75.3228 297.623 68.2124C293.145 63.7335 272.55 68.7632 272.378 77.086C272.29 81.2742 272.321 80.3792 272.183 86.3498C271.858 108.457 274.135 97.9697 258.133 107.325C255.979 108.97 257.781 97.3042 258.118 92.351C259.247 75.7282 260.043 69.5817 261.187 56.2827" fill="#161B1D"/>
<path d="M1.11718 101.695L11.0488 102.694C12.6141 102.85 13.7853 104.197 13.7278 105.769C13.2112 119.68 13.2035 131.843 13.1997 145.516C13.1997 147.961 15.9859 149.368 17.9531 147.907L42.1105 129.984C43.3352 129.077 45.0459 129.272 46.0372 130.397C46.1367 130.512 46.2171 130.645 46.2974 130.776C47.7556 133.162 53.3587 137.741 49.8376 140.307L26.9394 157.408C25.2899 158.64 25.4009 161.141 27.1537 162.22L48.4177 175.35C52.1416 177.573 46.9596 182.751 45.7425 185.264C45.6774 185.402 45.6124 185.54 45.5205 185.662C44.6326 186.89 42.9333 187.246 41.6206 186.435L17.9722 171.831C15.9936 170.611 13.4523 172.099 13.5212 174.421C13.6016 177.653 13.7661 180.877 13.8159 184.09C13.835 185.429 12.9624 186.618 11.6765 186.997L3.92253 189.277C2.02423 189.835 0.122103 188.424 0.102967 186.446C-0.138148 158.196 -0.0501216 129.926 1.10952 101.691" fill="#161B1D"/>
<path d="M109.094 169.142C100.796 165.264 75.3684 168.094 58.5402 168.771L56.6113 158.536C56.4429 157.629 57.1356 156.796 58.0579 156.796H62.4822C44.1919 97.4149 107.035 100.387 109.094 169.142ZM92.9086 157.09C94.7265 157.148 96.1885 155.507 95.8172 153.728C93.2951 142.774 85.8818 122.781 74.0404 126.522C67.006 128.744 70.9365 146.534 73.3209 153.759C73.9562 155.537 75.6938 156.669 77.5844 156.711C82.6937 156.815 87.8031 156.926 92.9124 157.09" fill="#161B1D"/>
<path d="M123.895 130.026C128.572 129.555 126.344 129.857 132.391 129.792C134.791 129.766 133.34 135.407 133.451 136.459C159.178 118.654 177.579 123.107 176.787 156.371C176.787 163.317 176.121 171.587 175.038 180.812C174.464 185.65 167.801 183.195 164.8 183.138C162.894 182.927 161.543 181.175 161.777 179.267C162.829 164.935 167.238 152.573 160.085 144.403C157.333 141.263 144.864 136.715 134.408 152.16C132.961 154.294 132.965 158.387 133.118 162.376C133.467 171.338 133.957 175.515 133.784 184.74C133.226 187.716 130.539 186.327 121.824 189.089C118.701 190.076 119.413 175.029 119.497 172.627C119.983 159.022 120.064 149.9 120.5 136.031C120.5 136.031 120.29 130.381 123.891 130.022" fill="#161B1D"/>
<path d="M185.135 169.697C186.421 143.459 201.745 108.301 225.431 116.666C240.557 122.009 235.975 143.83 231.769 156.941H237.969L236.217 166.228C235.926 167.766 234.548 168.859 232.983 168.791C216.483 168.049 195.353 166.423 185.131 169.697M220.674 154.168C233.633 114.015 205.407 120.15 198.492 153.51C198.086 155.469 199.64 157.293 201.638 157.228C206.774 157.056 211.91 156.949 217.046 156.853C218.703 156.823 220.165 155.748 220.674 154.172" fill="#161B1D"/>
<path d="M258.915 116.03C264.27 113.464 264.032 114.914 269.658 112.102C272.804 110.534 271.74 115.927 271.74 115.927C271.633 119.599 271.404 120.414 271.3 125.535C271.266 127.023 272.594 128.171 274.048 127.857C284.424 125.635 287.336 122.334 287.719 136.753C287.769 138.609 286.778 140.284 284.952 140.601C280.367 141.389 275.686 142.292 271.009 143.317C271.021 158.941 271.082 174.589 271.913 190.202L256.516 194C256.079 178.295 256.386 162.472 256.516 146.755C244.341 150.534 243.561 149.513 242.114 138.784C241.903 137.243 242.527 135.694 244.024 135.25C247.526 134.202 251.024 133.238 254.449 132.351C255.9 131.976 256.952 130.703 256.952 129.199C256.941 124.537 255.26 117.786 258.915 116.034" fill="#161B1D"/>
<path d="M79.2273 184.644C75.7751 184.973 69.8851 186.021 68.8938 180.766L67.1103 171.41C66.8692 170.393 67.6155 169.781 68.4805 169.498C70.3061 168.897 73.0884 168.239 77.8457 168.63C78.6494 168.63 79.721 169.265 80.0693 170.205L83.1043 180.766C83.9462 182.751 81.3552 184.441 79.2235 184.644" fill="#161B1D"/>
<path d="M106.099 185.054C102.761 185.249 96.7411 186.155 96.6875 181.175V169.682C96.6875 168.859 97.0013 168.5 98.0079 168.507C100.549 168.527 108.912 168.657 109.199 170.772L109.983 181.172C109.983 183.313 108.242 184.928 106.102 185.05" fill="#161B1D"/>
<path d="M214.891 185.322C218.243 185.765 223.643 187.135 225.224 181.443L227.21 171.636C227.379 170.791 226.778 170.038 225.84 169.697C224.03 169.039 220.467 168.699 215.71 169.089C214.745 169.169 214.221 169.54 213.953 170.573L211.002 181.443C210.068 183.681 212.556 185.016 214.883 185.322" fill="#161B1D"/>
<path d="M188.02 185.979C191.269 185.861 197.377 187.081 197.431 182.101V170.607C197.431 169.9 196.818 169.433 196.11 169.433C193.385 169.422 185 169.422 184.92 171.697L184.135 182.097C184.032 184.147 185.876 185.976 188.016 185.976" fill="#161B1D"/>
<path d="M197.5 30.5106C195.579 31.8454 192.23 29.8795 193 26.3377C196.88 8.45269 206.931 -1.85145 211.63 10.17C212.331 11.9562 214.926 11.6388 216.104 10.1203C225.32 -1.69845 240.935 -4.68183 235.103 9.38978C234.467 10.9235 237.181 11.9256 238.723 11.3022C243.148 9.516 254.744 8.8849 252.203 14.7178C248.643 22.8762 254.445 30.1702 251.732 30.5068C249.7 30.763 230.353 7.64947 197.5 30.5068" fill="#CB483C"/>
<path d="M148.61 77.7173C150.574 75.7819 187.437 39.6906 180.755 66.564C180.407 67.9601 182.14 67.4476 182.393 72.1789C182.527 74.6803 180.131 75.8316 183.35 78.0347C184.896 79.0904 186.488 81.0181 186.415 83.2174C186.228 88.9853 182.003 83.8523 165.5 85.6729C161.175 86.151 149.789 86.4685 145.782 85.4932C145.782 85.4932 144.496 82.9076 148.614 77.7173" fill="#F8D047"/>
<path d="M192.272 89.7767C188.575 87.0687 186.221 102.468 188.939 107.704C191.633 114.921 195.265 100.41 196.145 103.08C197.033 105.753 201.706 110.649 203.846 110.982C205.981 111.311 201.224 98.0231 203.896 99.6219C206.571 101.224 207.998 105.573 210.383 104.235C212.763 102.9 208.404 98.5203 210.279 96.4396C212.821 93.6054 198.124 95.5216 192.272 89.7729" fill="#CB483C"/>
</g>
<defs>
<clipPath id="clip0_563_228">
<rect width="314" height="194" fill="white"/>
</clipPath>
</defs>
</svg>
