<svg width="140" height="140" viewBox="0 0 140 140" fill="none" xmlns="http://www.w3.org/2000/svg">
<g clip-path="url(#clip0_583_833)">
<path d="M138.808 69.9982C138.808 31.9998 108 1.19141 70.0016 1.19141C32.0032 1.19141 1.19141 31.9998 1.19141 69.9982C1.19141 107.997 31.9998 138.805 70.0016 138.805C108.003 138.805 138.808 107.997 138.808 69.9982Z" fill="#F8D047"/>
<path d="M69.9983 140C31.4024 140 0 108.601 0 70.0017C0 31.4024 31.4024 0 69.9983 0C108.594 0 139.997 31.4024 139.997 70.0017C139.997 108.601 108.594 140 69.9983 140ZM69.9983 2.38301C32.7169 2.38301 2.38301 32.7169 2.38301 70.0017C2.38301 107.287 32.7169 137.617 70.0017 137.617C107.287 137.617 137.62 107.283 137.62 70.0017C137.62 32.7203 107.283 2.38301 69.9983 2.38301Z" fill="#161B1D"/>
<path d="M135.687 70.2917C135.687 34.2052 106.432 4.94678 70.3425 4.94678C34.2526 4.94678 4.99414 34.2052 4.99414 70.2917C4.99414 106.378 34.2491 135.637 70.3391 135.637C106.429 135.637 135.684 106.382 135.684 70.2917" fill="#161B1D"/>
<path d="M106.191 70.1041C106.191 50.3982 90.2167 34.4238 70.5108 34.4238C50.8049 34.4238 34.834 50.3982 34.834 70.1041C34.834 89.81 50.8083 105.784 70.5108 105.784C90.2133 105.784 106.191 89.81 106.191 70.1041Z" fill="#F8D047"/>
<path d="M20.731 64.9867L22.3117 68.1925C22.3697 68.3051 22.4755 68.3871 22.6019 68.4042L26.1388 68.9197C26.4597 68.9675 26.5861 69.3567 26.3539 69.582L23.7968 72.0743C23.7046 72.1664 23.6636 72.2928 23.6841 72.4191L24.2884 75.939C24.343 76.2599 24.0119 76.4989 23.7285 76.3487L20.5671 74.686C20.4544 74.6246 20.3179 74.6246 20.2052 74.686L17.0438 76.3487C16.757 76.4989 16.4258 76.2599 16.4805 75.939L17.0848 72.4191C17.1052 72.2928 17.0643 72.1664 16.9721 72.0743L14.415 69.582C14.1828 69.3567 14.3125 68.9675 14.6335 68.9197L18.1704 68.4042C18.2967 68.3871 18.4026 68.3086 18.4606 68.1925L20.0413 64.9867C20.1847 64.6965 20.5944 64.6965 20.7378 64.9867" fill="white"/>
<path d="M121.72 65.2665L123.209 68.2845C123.264 68.4006 123.376 68.4791 123.503 68.4962L126.835 68.981C127.152 69.0253 127.279 69.418 127.05 69.6433L124.64 71.9922C124.547 72.0843 124.506 72.2107 124.527 72.337L125.097 75.652C125.148 75.9729 124.817 76.2119 124.534 76.0617L121.553 74.4947C121.441 74.4366 121.304 74.4366 121.191 74.4947L118.211 76.0617C117.924 76.2119 117.589 75.9695 117.648 75.652L118.218 72.337C118.242 72.2107 118.197 72.0843 118.105 71.9922L115.695 69.6433C115.466 69.418 115.592 69.0253 115.913 68.981L119.242 68.4962C119.368 68.4791 119.477 68.4006 119.536 68.2845L121.024 65.2665C121.167 64.9763 121.577 64.9763 121.72 65.2665Z" fill="white"/>
<path d="M35.2539 49.8179C34.5438 51.006 33.7961 51.9892 33.0212 52.771C32.2905 53.5085 31.3858 54.1366 30.3036 54.6522C30.1773 54.717 30.0236 54.7068 29.8973 54.6317L26.6813 52.7027C26.4798 52.5833 26.4184 52.3238 26.5379 52.1258L27.7567 50.091C27.8659 49.9135 28.0844 49.8384 28.2756 49.9203L29.928 50.5894C30.0134 50.627 30.109 50.6372 30.1977 50.6133C30.5323 50.5109 30.9147 50.2651 31.3414 49.8793C31.8297 49.4389 32.2632 48.8995 32.649 48.2577C32.9153 47.8138 33.086 47.4076 33.1543 47.0388C33.2226 46.6735 33.1987 46.3526 33.0758 46.0727C32.9529 45.7927 32.7446 45.5605 32.4442 45.3796C32.1574 45.2089 31.8604 45.127 31.5463 45.1338C31.2322 45.1406 30.8805 45.2465 30.4777 45.4513C30.0817 45.6527 29.6173 45.9668 29.0745 46.3867C29.0677 46.3936 29.0609 46.397 29.054 46.4038C27.9103 47.4041 26.8963 48.1791 26.0087 48.7288C25.1142 49.2785 24.2709 49.5789 23.4686 49.6335C22.6698 49.6847 21.8504 49.456 21.0139 48.9541C20.2082 48.4693 19.6415 47.8207 19.3172 46.9979C18.986 46.1785 18.8904 45.2601 19.027 44.2496C19.1669 43.2356 19.5357 42.2045 20.1399 41.153C20.8227 39.9513 21.5704 38.9748 22.3796 38.2203C23.1341 37.517 23.9466 36.9776 24.824 36.5987C24.9503 36.5475 25.0937 36.5577 25.2098 36.626L28.1664 38.3979C28.3678 38.5208 28.4293 38.7802 28.3098 38.9748L27.1456 40.9174C27.0466 41.0881 26.8349 41.1633 26.6471 41.0984L24.9811 40.5214C24.8513 40.477 24.7045 40.4941 24.5987 40.5726C24.387 40.7331 24.148 40.955 23.8817 41.2349C23.5403 41.6002 23.2228 42.0168 22.9429 42.4879C22.6971 42.8942 22.5332 43.2868 22.4547 43.6692C22.3693 44.0481 22.3796 44.3929 22.482 44.707C22.5844 45.0143 22.7961 45.2669 23.117 45.4615C23.3799 45.6152 23.653 45.68 23.9466 45.6493C24.2436 45.6152 24.6089 45.4684 25.0425 45.2055C25.4761 44.9426 26.0292 44.55 26.7052 44.0174C26.712 44.0106 26.7222 44.0037 26.7291 43.9969C28.2005 42.6449 29.5559 41.7573 30.7918 41.3408C32.0379 40.9243 33.2806 41.0881 34.537 41.8392C35.3973 42.3548 35.9846 43.0273 36.3089 43.8535C36.6298 44.6831 36.7015 45.6049 36.5171 46.6257C36.3328 47.65 35.9129 48.7117 35.2505 49.8179" fill="white"/>
<path d="M39.2145 42.5016L38.2278 41.2247C38.1049 41.0643 38.1117 40.8424 38.2415 40.6853L38.955 39.8421C39.0882 39.6884 39.0916 39.4631 38.9687 39.3026L32.4137 30.8085C32.2874 30.6514 32.0723 30.5968 31.8913 30.6822L30.8979 31.1635C30.7135 31.2489 30.4984 31.1977 30.3721 31.0372L29.3786 29.7501C29.2352 29.5623 29.2659 29.2926 29.4571 29.1492L39.5013 21.3993C39.689 21.2525 39.9587 21.2867 40.1021 21.4745L42.5671 24.6666C42.7105 24.8544 42.6763 25.1241 42.4851 25.2675L40.703 26.6433C40.5221 26.7833 40.266 26.756 40.1158 26.5853L39.5081 25.8752C39.3579 25.7045 39.0984 25.6772 38.9175 25.8171L36.0019 28.067C35.8141 28.2104 35.78 28.4801 35.9233 28.6679L37.5314 30.747C37.6747 30.9348 37.941 30.9689 38.1288 30.8255L41.7409 28.0363C41.9287 27.8929 42.1984 27.927 42.3418 28.1182L43.7347 29.9208C43.8747 30.1086 43.8439 30.3783 43.6562 30.5217L40.0441 33.3076C39.8563 33.4509 39.8222 33.7207 39.9656 33.9084L41.9116 36.428C42.0584 36.6158 42.3247 36.6499 42.5125 36.5065L45.6022 34.1201C45.7865 33.9801 45.8241 33.7241 45.6944 33.5363L45.114 32.6999C44.9842 32.5121 45.0252 32.256 45.2061 32.1161L46.961 30.7641C47.1487 30.6173 47.4184 30.6514 47.5618 30.8426L50.0848 34.1099C50.2282 34.2976 50.1975 34.5673 50.0063 34.7107L39.8154 42.5767C39.6276 42.7201 39.3579 42.686 39.2145 42.4982" fill="white"/>
<path d="M52.4262 32.4402L52.0097 30.88C51.9585 30.6854 52.0472 30.4805 52.2282 30.3884L53.2148 29.8865C53.3924 29.7943 53.488 29.5929 53.4333 29.3983L50.6577 19.0298C50.6065 18.8352 50.4256 18.7021 50.2241 18.7123L49.1214 18.7704C48.92 18.7806 48.7356 18.6474 48.6844 18.4528L48.261 16.8721C48.1996 16.6434 48.3327 16.4112 48.5649 16.3498L56.2055 14.3048C57.5029 13.9565 58.6807 13.8644 59.7425 14.018C60.8077 14.175 61.6988 14.5677 62.4225 15.189C63.1429 15.8104 63.6413 16.6468 63.9213 17.6881C64.1808 18.6474 64.1569 19.6102 63.853 20.573C63.556 21.5391 63.02 22.3892 62.245 23.1335C61.4734 23.8744 60.5038 24.3967 59.3362 24.704L57.0113 25.2946C56.7791 25.3526 56.646 25.5882 56.704 25.817L57.3834 28.3399C57.4346 28.5345 57.6156 28.6643 57.817 28.654L58.9231 28.5994C59.1246 28.5892 59.3055 28.7189 59.3567 28.9135L59.7732 30.4771C59.8347 30.7059 59.6981 30.938 59.4694 30.9995L52.9485 32.7441C52.7198 32.8055 52.4876 32.669 52.4262 32.4402ZM55.6764 21.9625C55.7344 22.1912 55.9666 22.3278 56.1953 22.2663L58.2369 21.7201C59.0017 21.5152 59.5445 21.1807 59.8586 20.7095C60.1761 20.2418 60.2444 19.6717 60.0634 18.9991C59.8756 18.3026 59.5172 17.7973 58.9812 17.4867C58.4486 17.176 57.7931 17.1214 57.0113 17.333L55.0175 17.8656C54.7853 17.9237 54.6522 18.1592 54.7136 18.388L55.673 21.9591L55.6764 21.9625ZM62.74 29.825L59.2338 24.6323C59.1041 24.4377 59.1553 24.1714 59.3499 24.0416L61.7807 22.4131C61.9685 22.2868 62.2211 22.3312 62.3577 22.5087L65.2801 26.3564C65.362 26.4656 65.4918 26.5271 65.6249 26.5237L66.7379 26.51C66.9325 26.51 67.1032 26.6363 67.1544 26.8275L67.5743 28.3911C67.6358 28.6165 67.4992 28.8486 67.2705 28.9135L63.2078 30.0026C63.0336 30.047 62.8425 29.9787 62.7435 29.8285" fill="white"/>
<path d="M69.7703 28.6439L69.8624 27.0257C69.8693 26.8242 70.0195 26.6604 70.2175 26.6296L71.3168 26.4589C71.5148 26.4282 71.6651 26.2643 71.6753 26.0629L72.2693 15.3428C72.2796 15.1414 72.1498 14.9604 71.9552 14.9126L70.8867 14.6224C70.6921 14.5712 70.5623 14.3903 70.5726 14.1923L70.6647 12.5603C70.675 12.3282 70.8798 12.1507 71.112 12.1643L77.8445 12.5364C78.0766 12.5467 78.2576 12.7515 78.2473 12.9837L78.1552 14.6122C78.1449 14.8136 77.9947 14.9775 77.7967 15.0082L76.6974 15.1789C76.4993 15.2096 76.3491 15.3769 76.3389 15.5749L75.7483 26.2951C75.738 26.4965 75.8643 26.6774 76.0555 26.7287L77.1275 27.0188C77.3221 27.0701 77.4519 27.251 77.4416 27.449L77.3529 29.0673C77.3392 29.3028 77.1378 29.4804 76.9056 29.4667L70.1697 29.0946C69.9375 29.0809 69.7566 28.8795 69.7703 28.6474" fill="white"/>
<path d="M79.7416 29.9789L80.3083 28.4562C80.3766 28.2685 80.5678 28.1558 80.7624 28.1831L81.8685 28.3504C82.0665 28.3777 82.2543 28.2651 82.326 28.0807L86.0678 18.0093C86.1361 17.8215 86.0678 17.6132 85.9005 17.5074L84.9548 16.9099C84.7875 16.8041 84.7158 16.5924 84.7841 16.4081L85.3543 14.8717C85.4362 14.6567 85.6786 14.544 85.8971 14.6259L98.1979 19.1973C98.413 19.2759 98.5257 19.5183 98.4437 19.7333L96.9962 23.6288C96.9142 23.8473 96.6718 23.9599 96.4568 23.8746L94.3332 23.0859C94.1215 23.0074 94.0123 22.7787 94.0806 22.5636L94.4015 21.5667C94.4698 21.3516 94.3571 21.1229 94.1488 21.0443L90.2773 19.607C90.0588 19.5251 89.8198 19.6343 89.7413 19.8528L88.6625 22.7445C88.584 22.963 88.6932 23.202 88.9083 23.2874L93.5275 25.0012C93.7426 25.0832 93.8518 25.3221 93.7733 25.5406L92.9744 27.6778C92.8959 27.8963 92.6535 28.0056 92.4384 27.9237L87.8192 26.2098C87.6007 26.1279 87.3617 26.2405 87.2798 26.4556L86.1497 29.4975C86.0814 29.6819 86.1497 29.8936 86.3204 29.9994L87.2593 30.5969C87.43 30.7027 87.4983 30.911 87.43 31.0987L86.8667 32.6248C86.7847 32.8433 86.5458 32.9526 86.3238 32.8706L79.984 30.5149C79.7655 30.433 79.6562 30.194 79.7381 29.9755" fill="white"/>
<path d="M92.5409 35.1443L93.5241 33.8572C93.647 33.7001 93.8621 33.6455 94.043 33.7308L95.0434 34.2088C95.2243 34.2942 95.4428 34.2429 95.5657 34.0825L102.09 25.5576C102.213 25.4005 102.206 25.1752 102.076 25.025L101.353 24.1817C101.226 24.0315 101.216 23.8096 101.339 23.6491L102.332 22.3552C102.476 22.1674 102.742 22.1333 102.926 22.2733L108.283 26.3736C108.467 26.5169 108.502 26.7832 108.362 26.9676L107.368 28.2615C107.249 28.4186 107.034 28.4732 106.849 28.3878L105.849 27.9133C105.668 27.8279 105.453 27.8757 105.33 28.0362L98.8056 36.5611C98.6827 36.7215 98.6896 36.9435 98.8193 37.0971L99.5431 37.9404C99.6728 38.094 99.6796 38.3159 99.5567 38.473L98.5735 39.76C98.4335 39.9444 98.1638 39.9785 97.9794 39.8386L92.6262 35.7383C92.4384 35.5949 92.4009 35.3286 92.5443 35.1443" fill="white"/>
<path d="M100.642 41.2897L102.008 40.4089C102.175 40.2996 102.393 40.3235 102.537 40.4601L103.319 41.2453C103.459 41.3887 103.677 41.4092 103.841 41.3L112.864 35.4654C113.028 35.3561 113.096 35.1478 113.025 34.9635L112.632 33.929C112.564 33.7447 112.632 33.533 112.799 33.4272L114.172 32.5395C114.37 32.4132 114.629 32.4678 114.752 32.6658L115.476 33.7788L117.606 37.0768C117.688 37.1997 117.699 37.3533 117.637 37.4831L112.315 48.8792L112.352 48.9338L118.839 44.7413C119.01 44.6287 119.081 44.4068 118.996 44.2224L118.385 42.8056C118.303 42.6178 118.368 42.3959 118.542 42.2832L119.901 41.4058C120.099 41.2795 120.358 41.3341 120.484 41.5321L123.431 46.0865L124.154 47.2097C124.281 47.4043 124.223 47.6672 124.028 47.7935L122.652 48.6846C122.488 48.7904 122.267 48.7665 122.127 48.6265L121.341 47.8379C121.198 47.6945 120.983 47.6706 120.816 47.7798L109.542 55.0688C109.348 55.1952 109.088 55.1371 108.962 54.9425L107.129 52.1054C107.05 51.9859 107.04 51.8357 107.094 51.7094L112.158 40.3304L112.12 40.2723L105.818 44.3453C105.647 44.458 105.579 44.6799 105.661 44.8676L106.279 46.2947C106.36 46.4825 106.292 46.701 106.121 46.8137L104.77 47.6877C104.578 47.814 104.315 47.7559 104.193 47.5648L100.519 41.8838C100.393 41.6892 100.447 41.4263 100.645 41.3034" fill="white"/>
<path d="M14.5275 91.8858L15.9409 91.1962C16.1184 91.1074 16.3335 91.1586 16.453 91.3123L17.1187 92.159C17.2451 92.316 17.4567 92.3638 17.6343 92.2785L27.057 87.6729C27.2312 87.5875 27.3268 87.3861 27.2755 87.1949L27.0127 86.1502C26.9649 85.959 27.057 85.7576 27.2346 85.6723L28.6616 84.9758C28.8665 84.8768 29.1191 84.9621 29.2215 85.167L32.1133 91.0801C32.2157 91.2918 32.1303 91.5376 31.9221 91.64L30.4984 92.3365C30.3175 92.4218 30.1024 92.3741 29.9829 92.2204L29.3171 91.3703C29.1942 91.2133 28.9792 91.1655 28.8016 91.2508L19.3823 95.8564C19.2047 95.9451 19.1125 96.1432 19.1603 96.3344L19.4232 97.3791C19.4744 97.5702 19.3823 97.7751 19.2013 97.8604L17.7879 98.5501C17.5762 98.6525 17.3304 98.5637 17.228 98.3589L14.3363 92.4457C14.2339 92.2375 14.3192 91.9849 14.5275 91.8858Z" fill="white"/>
<path d="M21.2802 103.794L22.7448 102.521C22.8131 102.466 22.8882 102.432 22.977 102.422L35.4383 101.141C35.7763 101.107 35.9367 100.704 35.7114 100.448L33.7449 98.1849C33.6083 98.0279 33.3762 97.9937 33.1987 98.1064L32.0242 98.8677C31.8501 98.9804 31.6145 98.9497 31.478 98.7892L30.0407 97.1368C29.8836 96.9559 29.9109 96.6793 30.0953 96.5325L33.482 93.832C33.6561 93.6886 33.9122 93.7159 34.059 93.8832L41.5665 102.521C41.7201 102.695 41.6996 102.961 41.5255 103.111L40.1292 104.323C40.0643 104.381 39.9824 104.419 39.897 104.426L27.3367 105.75C27.0022 105.788 26.8417 106.191 27.0636 106.447L29.5661 109.322C29.6993 109.479 29.928 109.513 30.1021 109.404L31.1878 108.728C31.3653 108.618 31.5941 108.656 31.7272 108.809L33.1543 110.452C33.3147 110.636 33.284 110.916 33.0928 111.059L29.7573 113.593C29.5832 113.726 29.3305 113.702 29.1871 113.534L21.2324 104.381C21.0788 104.207 21.0993 103.941 21.2734 103.791" fill="white"/>
<path d="M40.9096 122.394C39.4279 121.533 38.3422 120.512 37.6492 119.338C36.9596 118.164 36.642 116.907 36.7001 115.569C36.7581 114.231 37.1815 112.885 37.9667 111.533L38.3457 110.885C39.1719 109.458 40.1688 108.358 41.333 107.58C42.4971 106.798 43.7638 106.392 45.1294 106.365C46.4984 106.337 47.8982 106.737 49.3252 107.57C50.3051 108.136 51.1996 108.857 52.0087 109.727C52.7734 110.543 53.3402 111.455 53.7157 112.455C53.7635 112.578 53.7499 112.715 53.685 112.827L52.0497 115.634C51.9302 115.835 51.6673 115.903 51.4659 115.787L49.653 114.732C49.4857 114.637 49.4072 114.442 49.4516 114.258L49.8783 112.568C49.9022 112.489 49.9022 112.411 49.8783 112.332C49.7759 112.008 49.5813 111.677 49.2945 111.325C48.9736 110.939 48.5537 110.595 48.045 110.298C47.2597 109.84 46.4848 109.649 45.7268 109.731C44.9723 109.813 44.2554 110.127 43.5828 110.666C42.9137 111.209 42.3094 111.936 41.7768 112.858L41.391 113.524C40.8891 114.391 40.5921 115.221 40.4999 116.02C40.4077 116.818 40.5307 117.549 40.8652 118.211C41.1998 118.87 41.7631 119.43 42.5484 119.888C42.9615 120.127 43.3985 120.325 43.8559 120.475C44.1632 120.574 44.4363 120.649 44.6685 120.697C44.8494 120.734 45.0304 120.649 45.126 120.492L45.8634 119.222C45.9726 119.034 45.9283 118.795 45.7542 118.665L44.8563 117.986C44.6856 117.856 44.6378 117.617 44.7436 117.433L45.7234 115.746C45.8429 115.545 46.1058 115.473 46.3106 115.593L50.6465 118.116C50.8479 118.235 50.9196 118.495 50.8035 118.7L47.6865 124.06C47.6114 124.189 47.4714 124.278 47.3212 124.278C46.3345 124.302 45.324 124.162 44.2929 123.865C43.1765 123.544 42.0499 123.052 40.9164 122.394" fill="white"/>
<path d="M52.9825 126.863L53.2249 125.347C53.259 125.139 53.4399 124.982 53.6516 124.985L54.1979 124.992C54.3549 124.992 54.5017 124.907 54.5802 124.767L61.4049 112.152C61.4903 111.991 61.6678 111.903 61.8453 111.933L65.5189 112.52C65.6998 112.548 65.8398 112.688 65.8705 112.865L68.4413 126.986C68.4686 127.143 68.5813 127.269 68.7349 127.317L69.2538 127.481C69.4553 127.546 69.585 127.747 69.5474 127.955L69.3085 129.471C69.2709 129.703 69.049 129.867 68.8168 129.826L63.549 128.986C63.3168 128.949 63.1563 128.727 63.1939 128.498L63.4397 126.965C63.4704 126.764 63.6411 126.614 63.8494 126.607L64.1293 126.6C64.3786 126.593 64.5698 126.371 64.5424 126.122L64.4195 125.053C64.3956 124.862 64.2488 124.709 64.0611 124.678L59.4487 123.94C59.2609 123.91 59.0663 124.016 58.9912 124.19L58.5542 125.17C58.4552 125.398 58.5644 125.661 58.8 125.747L59.0697 125.842C59.2643 125.914 59.377 126.108 59.3463 126.313L59.1004 127.846C59.0629 128.078 58.8444 128.239 58.6122 128.201L53.3307 127.355C53.0985 127.317 52.9381 127.098 52.979 126.863M60.9713 121.349L63.3987 121.738C63.6855 121.783 63.9313 121.537 63.8869 121.25L63.1734 116.621L63.0846 116.016L63.0164 116.006L62.7262 116.607L60.6538 120.738C60.5241 120.998 60.6812 121.305 60.9679 121.353" fill="white"/>
<path d="M75.5738 129.212L75.2495 127.665C75.2051 127.474 75.3075 127.279 75.485 127.197L76.4751 126.76C76.6561 126.679 76.7516 126.484 76.7141 126.289L74.5428 116.03C74.5018 115.836 74.3277 115.699 74.1331 115.699H73.0508C72.8528 115.699 72.6855 115.559 72.6411 115.368L72.31 113.801C72.2622 113.579 72.4056 113.354 72.6309 113.306L80.193 111.708C81.4767 111.435 82.6341 111.401 83.6617 111.612C84.6927 111.817 85.5394 112.247 86.212 112.893C86.8846 113.538 87.3284 114.378 87.5469 115.409C87.7483 116.358 87.6766 117.297 87.3318 118.225C86.9904 119.147 86.4202 119.953 85.6282 120.639C84.8361 121.322 83.8631 121.783 82.7092 122.018L80.4115 122.476C80.1828 122.517 80.036 122.742 80.0872 122.971L80.6129 125.467C80.6573 125.658 80.828 125.798 81.0226 125.798H82.1015C82.2995 125.798 82.4702 125.938 82.5112 126.129L82.8355 127.672C82.8867 127.897 82.7399 128.119 82.5146 128.167L76.0654 129.536C75.8367 129.581 75.6148 129.441 75.567 129.215M79.278 119.161C79.3258 119.386 79.5478 119.53 79.7731 119.482L81.7908 119.055C82.5487 118.895 83.095 118.594 83.4295 118.157C83.7641 117.717 83.8597 117.164 83.7197 116.494C83.5729 115.805 83.2486 115.293 82.7399 114.962C82.238 114.63 81.5962 114.545 80.828 114.709L78.8547 115.125C78.6294 115.177 78.486 115.395 78.5338 115.624L79.2815 119.161H79.278ZM85.7647 127.197L82.6136 121.95C82.4941 121.752 82.5624 121.493 82.7604 121.377L85.2083 119.915C85.3994 119.803 85.6453 119.857 85.7682 120.038L88.4175 123.947C88.4926 124.057 88.6189 124.121 88.7486 124.128L89.8343 124.173C90.0255 124.179 90.1859 124.316 90.2269 124.504L90.5547 126.047C90.599 126.276 90.4591 126.494 90.2337 126.545L86.212 127.396C86.0413 127.433 85.8603 127.355 85.7682 127.201" fill="white"/>
<path d="M95.4222 123.811L94.5721 122.513C94.456 122.343 94.4868 122.107 94.6404 121.971L95.0569 121.598C95.173 121.496 95.2242 121.336 95.1832 121.185L91.7282 107.253C91.6838 107.082 91.7521 106.901 91.9023 106.802L95.0194 104.754C95.1662 104.658 95.3608 104.661 95.5041 104.771L106.924 113.48C107.05 113.575 107.214 113.593 107.354 113.528L107.86 113.292C108.047 113.207 108.273 113.268 108.385 113.442L109.239 114.74C109.365 114.931 109.311 115.194 109.119 115.32L104.644 118.256C104.449 118.382 104.186 118.328 104.063 118.133L103.203 116.826C103.09 116.658 103.117 116.436 103.261 116.293L103.476 116.088C103.65 115.917 103.647 115.631 103.459 115.47L102.636 114.75C102.496 114.627 102.288 114.61 102.134 114.716L98.2183 117.287C98.0579 117.389 97.9862 117.587 98.0476 117.768L98.389 118.802C98.4675 119.031 98.7236 119.151 98.9489 119.055L99.2255 118.942C99.4098 118.864 99.6249 118.932 99.7376 119.099L100.598 120.407C100.724 120.598 100.67 120.861 100.478 120.987L95.9924 123.93C95.8012 124.057 95.5383 124.005 95.4154 123.811M97.5901 114.347L99.6659 112.985C99.9014 112.828 99.9185 112.483 99.7 112.305L96.0436 109.359L95.5724 108.973L95.5178 109.011L95.7056 109.649L96.9585 114.108C97.0336 114.381 97.3546 114.501 97.5935 114.344" fill="white"/>
<path d="M117.668 105.61C116.862 106.696 116.043 107.58 115.21 108.263C114.431 108.908 113.492 109.427 112.396 109.827C112.257 109.878 112.106 109.85 111.987 109.765L109.064 107.59C108.877 107.45 108.836 107.181 108.979 106.996L110.348 105.156C110.474 104.985 110.7 104.934 110.891 105.033L112.41 105.835C112.492 105.88 112.588 105.904 112.683 105.883C113.018 105.815 113.41 105.617 113.861 105.282C114.377 104.9 114.851 104.419 115.285 103.835C115.592 103.425 115.793 103.05 115.896 102.698C115.995 102.35 116.005 102.032 115.913 101.749C115.824 101.465 115.64 101.22 115.367 101.018C115.104 100.824 114.82 100.711 114.517 100.691C114.213 100.667 113.858 100.735 113.448 100.895C113.042 101.052 112.557 101.312 111.99 101.67C111.983 101.67 111.977 101.681 111.966 101.684C110.761 102.544 109.699 103.203 108.778 103.65C107.859 104.101 107.006 104.313 106.224 104.286C105.442 104.255 104.667 103.954 103.899 103.384C103.161 102.838 102.677 102.152 102.438 101.319C102.199 100.489 102.195 99.5878 102.427 98.6182C102.656 97.6452 103.117 96.6756 103.807 95.7128C104.589 94.6135 105.408 93.7327 106.265 93.0738C107.064 92.4695 107.904 92.0256 108.788 91.7389C108.921 91.6979 109.064 91.7286 109.18 91.8071L111.864 93.8044C112.052 93.9478 112.093 94.2141 111.953 94.4018L110.645 96.1601C110.526 96.3205 110.311 96.3751 110.126 96.2898L108.58 95.5763C108.457 95.5182 108.31 95.5216 108.194 95.5933C107.975 95.7265 107.726 95.9143 107.439 96.1601C107.071 96.481 106.722 96.8565 106.401 97.2901C106.125 97.6588 105.93 98.0275 105.811 98.3894C105.695 98.7513 105.671 99.0859 105.743 99.4C105.811 99.7107 105.992 99.977 106.285 100.195C106.524 100.37 106.787 100.458 107.077 100.458C107.368 100.458 107.736 100.346 108.187 100.134C108.627 99.9189 109.208 99.5878 109.914 99.1405C109.921 99.1337 109.932 99.1303 109.938 99.12C111.502 97.9456 112.905 97.215 114.148 96.9282C115.397 96.6414 116.592 96.9282 117.739 97.7749C118.525 98.3553 119.033 99.0688 119.269 99.9053C119.501 100.738 119.481 101.646 119.204 102.623C118.928 103.599 118.415 104.593 117.661 105.603" fill="white"/>
<path d="M124.216 94.1356L122.745 93.5586C122.564 93.4869 122.454 93.2958 122.489 93.1012L122.666 92.0326C122.7 91.838 122.591 91.6502 122.407 91.5751L112.649 87.7274C112.465 87.6557 112.257 87.7206 112.147 87.8845L111.55 88.7858C111.441 88.9497 111.229 89.0179 111.048 88.9428L109.57 88.359C109.355 88.2771 109.249 88.0347 109.334 87.8196L111.748 81.6914C111.83 81.4763 112.072 81.3739 112.287 81.4592L113.769 82.0396C113.953 82.1113 114.059 82.3025 114.029 82.4971L113.848 83.5657C113.813 83.7569 113.923 83.9481 114.107 84.0232L123.864 87.8708C124.049 87.9425 124.26 87.8777 124.366 87.7104L124.967 86.8091C125.073 86.6452 125.285 86.5769 125.469 86.652L126.937 87.229C127.152 87.3143 127.255 87.5567 127.169 87.7718L124.756 93.9C124.674 94.1151 124.431 94.2176 124.216 94.1322" fill="white"/>
<path d="M34.2971 51.5149C33.4982 51.0369 33.2353 49.999 33.7133 49.2001L34.0649 48.6095C34.5463 47.8106 35.5808 47.5511 36.3831 48.0325C37.1819 48.5105 37.4414 49.5484 36.9634 50.3473L36.6118 50.9379C36.1338 51.7368 35.096 51.9962 34.2971 51.5183" fill="white"/>
<path d="M73.1094 9.8494C73.1469 9.17341 73.7239 8.65789 74.3999 8.69203L74.8983 8.72276C75.5743 8.7569 76.0933 9.33387 76.0557 10.0099C76.0181 10.6893 75.4446 11.2048 74.7652 11.1706L74.2702 11.1433C73.5908 11.1058 73.0752 10.5288 73.1128 9.85281" fill="white"/>
<path d="M105.743 21.4743C106.152 20.9383 106.924 20.8393 107.46 21.2489L107.856 21.5562C108.392 21.9659 108.491 22.7375 108.081 23.2735C107.672 23.8095 106.9 23.9085 106.364 23.4988L105.968 23.1915C105.432 22.7818 105.333 22.0103 105.743 21.4743Z" fill="white"/>
<path d="M69.7525 48.2817C69.7525 48.2817 70.0871 49.8897 71.2547 49.7395C72.4257 49.5859 72.3847 49.0499 72.3847 48.7802C72.3847 48.5105 72.5588 47.6911 73.0368 47.517C73.5148 47.3463 72.8832 47.2507 72.9583 47.1721C73.0368 47.0936 73.3236 46.981 73.3236 46.981H73.9757L74.2829 47.2882C74.2829 47.2882 74.2283 47.5204 74.0166 47.4794C73.805 47.4419 74.1498 47.8242 74.1498 47.8242L73.8255 47.8618C73.8255 47.8618 74.3034 48.2954 74.0166 48.3636C73.7265 48.4388 73.5762 48.3978 73.6889 48.6675C73.805 48.9372 74.2829 49.9921 74.0713 50.5282C73.863 51.0642 72.8661 52.3717 71.4834 52.8838C71.4834 52.8838 70.9679 53.2116 71.101 53.594C71.2376 53.9763 71.3127 54.1095 71.6575 54.0719C72.0024 54.0344 72.0194 54.1675 72.0194 54.1675H71.6575L72.0194 54.4338L71.3127 54.2631C71.3127 54.2631 71.2308 54.5363 71.5176 54.5806C71.8078 54.6216 72.1935 54.5806 72.1935 54.5806L71.7941 54.707L72.3403 55.0381C72.3403 55.0381 71.6336 54.9255 71.4732 54.765C71.3161 54.6079 70.9406 55.1235 70.9406 55.1235C70.9406 55.1235 71.0123 54.6796 70.9986 54.4338C70.985 54.188 70.4694 54.1163 70.4694 54.1163C70.4694 54.1163 70.8723 54.1027 70.8279 53.8569C70.7835 53.611 70.4694 53.611 70.4114 53.3413C70.3534 53.0682 70.0359 52.7507 69.8208 52.7507C69.6057 52.7507 69.3053 52.6073 69.1858 52.3478C69.0731 52.0884 68.7146 51.9313 68.8273 51.6446C68.94 51.3544 68.9536 51.1393 68.8034 50.9822C68.6532 50.8252 68.3937 50.4496 68.38 50.3472C68.363 50.2482 68.1035 50.1594 68.1923 49.8453C68.2776 49.5278 68.363 49.4869 68.3357 49.2991C68.3084 49.1113 68.2947 49.1557 68.4347 48.9679C68.5781 48.7802 68.52 48.6607 68.4927 48.5105C68.4654 48.3534 68.8102 48.1212 68.8648 48.0359C68.9229 47.9505 68.9502 47.4009 69.254 47.476C69.5579 47.5477 69.8139 47.9949 69.7423 48.2817" fill="#161B1D"/>
<path d="M59.8242 63.5935L62.7603 59.1348L70.8584 54.8706L79.2877 59.2064L82.3638 63.4945L59.8242 63.5935Z" fill="#161B1D"/>
<path d="M82.8412 63.9043H59.3457V79.2744H82.8412V63.9043Z" fill="#161B1D"/>
<path d="M82.841 79.2742H59.3455V63.9041H82.841V79.2742ZM83.4385 63.3066H58.748V79.8716H83.4385V63.3066Z" fill="#161B1D"/>
<path d="M85.618 65.9934H83.4398L79.162 59.8993L71.3438 55.8776L63.3174 60.1042L58.8348 65.99H56.5781C56.083 65.99 55.6836 65.5905 55.6836 65.0955C55.6836 64.6005 56.083 64.201 56.5781 64.201H57.9471L62.1361 58.7078L71.3336 53.8599L80.3774 58.5098L84.3719 64.201H85.6214C86.1164 64.201 86.5159 64.6005 86.5159 65.0955C86.5159 65.5905 86.1164 65.99 85.6214 65.99" fill="#161B1D"/>
<path d="M70.934 68.8374H64.0273V79.2742H70.934V68.8374Z" fill="#161B1D"/>
<path d="M71.2346 79.5747H63.7305V68.5405H71.2346V79.5747ZM64.3279 78.9773H70.6405V69.138H64.3279V78.9773Z" fill="white"/>
<path d="M77.8402 68.8374H70.9336V79.2742H77.8402V68.8374Z" fill="#161B1D"/>
<path d="M78.1408 79.5747H70.6367V68.5405H78.1408V79.5747ZM71.2308 78.9773H77.5433V69.138H71.2308V78.9773Z" fill="white"/>
<path d="M105.587 80.7662H34.7762C34.445 80.7662 34.1719 80.4999 34.1719 80.1688C34.1719 79.8376 34.445 79.5747 34.7762 79.5747H105.587C105.922 79.5747 106.191 79.841 106.191 80.1688C106.191 80.4965 105.922 80.7662 105.587 80.7662Z" fill="#161B1D"/>
<path d="M100.717 84.2825H40.046C39.8685 84.2825 39.7285 84.1494 39.7285 83.9855C39.7285 83.8216 39.8685 83.6851 40.046 83.6851H100.717C100.891 83.6851 101.031 83.8182 101.031 83.9855C101.031 84.1528 100.891 84.2825 100.717 84.2825Z" fill="white"/>
<path d="M98.5026 88.7483H42.403C42.2254 88.7483 42.082 88.6152 42.082 88.4513C42.082 88.2874 42.2254 88.1509 42.403 88.1509H98.5026C98.6802 88.1509 98.8236 88.284 98.8236 88.4513C98.8236 88.6186 98.6802 88.7483 98.5026 88.7483Z" fill="white"/>
<path d="M95.1947 93.2137H45.6363C45.4554 93.2137 45.3086 93.0805 45.3086 92.9166C45.3086 92.7528 45.4554 92.6162 45.6363 92.6162H95.1947C95.3791 92.6162 95.5259 92.7494 95.5259 92.9166C95.5259 93.0839 95.3791 93.2137 95.1947 93.2137Z" fill="white"/>
<path d="M90.0353 97.6795H50.9444C50.7601 97.6795 50.6133 97.5463 50.6133 97.3825C50.6133 97.2186 50.7601 97.082 50.9444 97.082H90.0353C90.2197 97.082 90.3665 97.2152 90.3665 97.3825C90.3665 97.5498 90.2197 97.6795 90.0353 97.6795Z" fill="white"/>
<path d="M81.5795 102.145H59.651C59.4803 102.145 59.3438 102.012 59.3438 101.848C59.3438 101.684 59.4803 101.547 59.651 101.547H81.5795C81.7502 101.547 81.8867 101.681 81.8867 101.848C81.8867 102.015 81.7502 102.145 81.5795 102.145Z" fill="white"/>
<path d="M70.9381 46.4312C70.5284 42.8908 70.5284 39.3402 70.9381 35.7998C71.3478 39.3402 71.3478 42.8908 70.9381 46.4312Z" fill="white"/>
<path d="M93.5586 65.0515C97.0648 64.0136 100.585 64.0068 104.091 65.0515C100.585 66.0962 97.0648 66.0893 93.5586 65.0515Z" fill="white"/>
<path d="M81.0117 48.8858C81.7082 45.2908 83.323 42.1669 85.8699 39.5347C85.1803 43.1331 83.5484 46.2501 81.0117 48.8858Z" fill="white"/>
<path d="M88.9707 55.1266C91.8897 52.9177 95.174 51.6647 98.8271 51.4053C95.9149 53.6244 92.6203 54.8569 88.9707 55.1266Z" fill="white"/>
<path d="M47.7413 64.7678C44.2351 63.7299 40.7152 63.7231 37.209 64.7678C40.7152 65.8125 44.2351 65.8057 47.7413 64.7678Z" fill="white"/>
<path d="M60.1082 48.4658C59.4083 44.8708 57.7969 41.747 55.25 39.1147C55.9396 42.7132 57.5716 45.8302 60.1082 48.4658Z" fill="white"/>
<path d="M52.6474 54.775C49.7284 52.5661 46.4441 51.3132 42.791 51.0537C45.7032 53.2728 48.9978 54.5053 52.6474 54.775Z" fill="white"/>
<path d="M70.9372 46.3834C69.8993 42.8772 69.8925 39.3573 70.9372 35.8511C71.9819 39.3573 71.9751 42.8772 70.9372 46.3834Z" fill="white"/>
<path d="M70.6879 79.4383L63.7812 69.0016L64.2763 68.6704L71.1829 79.1106L70.6879 79.4383Z" fill="white"/>
<path d="M77.5941 79.4383L70.6875 69.0016L71.1825 68.6704L78.0926 79.1106L77.5941 79.4383Z" fill="white"/>
<path d="M71.3476 79.4349L70.8457 79.1106L77.5953 68.6772L78.0937 69.0016L71.3476 79.4349Z" fill="white"/>
<path d="M64.436 79.4383L63.9375 79.1106L70.8475 68.6704L71.3426 69.0016L64.436 79.4383Z" fill="white"/>
<path d="M73.0513 60.2068C73.0513 59.1655 72.2046 58.3188 71.1634 58.3188C70.1221 58.3188 69.2754 59.1621 69.2754 60.2068C69.2754 61.2515 70.1221 62.0948 71.1634 62.0948C72.2046 62.0948 73.0513 61.2481 73.0513 60.2068Z" fill="#161B1D"/>
<path d="M71.1616 62.392C69.9564 62.392 68.9766 61.4121 68.9766 60.207C68.9766 59.0018 69.9564 58.0186 71.1616 58.0186C72.3667 58.0186 73.3465 58.9984 73.3465 60.207C73.3465 61.4155 72.3667 62.392 71.1616 62.392ZM71.1616 58.616C70.2876 58.616 69.5706 59.3261 69.5706 60.207C69.5706 61.0878 70.2841 61.7945 71.1616 61.7945C72.039 61.7945 72.7525 61.0844 72.7525 60.207C72.7525 59.3296 72.039 58.616 71.1616 58.616Z" fill="white"/>
<path d="M99.0547 72.6101C99.0547 72.6101 99.5259 72.2926 99.8673 72.354C100.205 72.4155 100.222 72.5794 100.192 72.6579C100.161 72.733 100.007 73.1666 99.6283 73.1734C99.2493 73.1802 99.1469 73.1734 99.1469 73.1734C99.1469 73.1734 99.1537 73.6309 99.1162 73.8118C99.0786 73.9996 99.0786 74.3 99.1674 74.4025C99.263 74.5015 99.4234 75.0204 99.2391 75.0272C99.0513 75.0341 98.9182 75.1433 98.8738 75.174C98.826 75.2048 98.488 75.174 98.488 75.174C98.488 75.174 98.3105 75.1945 98.2115 75.1877C98.1125 75.1809 97.9657 75.1501 97.9657 75.1501L97.4877 75.6486C97.4877 75.6486 97.4877 76.1402 97.4331 76.2495C97.3818 76.3587 97.3955 76.5499 97.3511 76.6216C97.3033 76.6899 97.1497 76.7616 97.1497 76.7616C97.1497 76.7616 97.1804 76.8742 96.9687 76.9664C96.7639 77.0586 96.6854 77.1235 96.6854 77.1235C96.6854 77.1235 96.2757 77.3488 96.2006 77.5024C96.1221 77.6595 95.9275 78.0521 95.8967 78.909C95.866 79.7659 96.2518 79.8274 96.2518 79.8274C96.2518 79.8274 96.3815 80.0732 96.1903 80.0698C95.9957 80.063 95.5656 80.1005 95.5348 79.7045C95.5041 79.3119 95.4256 78.1374 95.5348 77.7516C95.5348 77.7516 95.2617 78.3218 95.3163 79.1753C95.3676 80.022 95.7807 80.2405 95.7807 80.2405C95.7807 80.2405 95.9821 80.3805 95.8421 80.4658C95.7021 80.5477 95.0432 80.6536 94.9306 80.3634C94.8145 80.0766 94.7462 79.9537 94.7462 79.9537L94.7838 79.206C94.7838 79.206 94.753 78.571 94.654 78.2876C94.555 78.0009 94.5926 77.3385 94.6165 77.2156C94.6404 77.0893 94.4833 77.0586 94.3229 77.021C94.1624 76.9835 93.4659 76.9903 93.0084 77.1132C92.5544 77.2395 91.933 77.1815 91.6258 77.1508C91.3185 77.12 90.6015 77.3693 89.3895 76.3348C89.3895 76.3348 89.2018 77.1508 89.1335 77.3078C89.0652 77.4614 88.8945 77.8336 88.9935 78.4515C89.0925 79.0729 89.632 79.8445 89.632 79.8445C89.632 79.8445 89.9665 80.2405 90.1338 80.2849C90.3045 80.3327 90.2636 80.5921 90.0382 80.5921C89.8129 80.5921 89.2666 80.6707 89.1813 80.4385C89.0959 80.2063 89.0891 80.0425 88.9901 79.9878C88.8911 79.9366 88.8126 79.7557 88.8023 79.6635C88.7955 79.5713 88.3756 78.7622 88.3756 78.7622L87.9966 78.1511C87.9966 78.1511 87.8566 78.1135 87.8259 78.3115C87.7952 78.513 87.7645 79.4109 87.7884 79.4928C87.8123 79.5782 88.0273 80.0117 88.0273 80.0117L88.3141 80.2814C88.3141 80.2814 88.3824 80.5443 88.1059 80.5375C87.8293 80.5307 87.4265 80.5819 87.3718 80.3497C87.3206 80.1176 87.2933 80.0015 87.2319 79.9332C87.1704 79.8649 87.1499 79.6567 87.1704 79.5372C87.1943 79.4245 87.1465 78.5027 87.0748 78.216C87.0065 77.9292 86.8188 77.3283 86.9451 77.0791C87.0714 76.8333 87.2626 76.3928 87.1329 76.0685C86.9997 75.7442 86.6925 75.1228 86.6686 74.4605C86.6686 74.4605 86.6208 75.6213 86.59 75.7612C86.5593 75.8978 86.4466 76.4031 86.4466 76.4748C86.4466 76.5465 86.4774 76.782 86.3818 76.8708C86.2896 76.9562 86.2725 77.0483 86.1803 77.2054C86.0882 77.3624 86.0813 77.1098 86.0711 77.0483C86.0643 76.9869 85.9004 77.103 85.9004 77.103C85.9004 77.103 85.9482 76.6489 86.0916 76.4748C86.2384 76.3007 86.3988 75.9456 86.3784 75.3618C86.3545 74.7848 86.153 73.03 86.5047 72.6306C86.8495 72.2277 87.4128 72.2653 87.4128 72.2653C87.4128 72.2653 87.7679 71.6883 88.5668 71.7395C89.3622 71.7941 90.7142 72.4052 91.3083 72.4496C91.9023 72.4974 93.3021 72.4189 93.5171 72.4052C93.7356 72.3882 95.7329 72.3813 95.8353 72.3813C95.9377 72.3813 96.7605 72.296 96.7912 72.2243C96.7912 72.2243 96.3679 71.9614 96.4771 71.521C96.5864 71.0806 96.6785 71.4595 96.6785 71.5688C96.6785 71.678 96.7605 72.0092 97.1258 71.999C97.4877 71.9921 97.3955 71.8283 97.6106 71.7941C97.8291 71.7531 98.7133 71.7634 98.9011 71.9375C99.0855 72.115 99.3517 72.0058 99.461 71.8692C99.5668 71.7293 99.6624 71.5688 99.6522 71.4698C99.6454 71.3674 99.9697 71.5176 99.7512 71.917C99.5327 72.3165 99.1094 72.395 99.1094 72.395C99.1094 72.395 99.024 72.4769 99.0479 72.6101" fill="#161B1D"/>
<path d="M42.1973 71.4695C42.1973 71.4695 41.6647 71.111 41.279 71.1793C40.8932 71.2476 40.8761 71.432 40.9102 71.5207C40.9478 71.6061 41.1185 72.0977 41.5487 72.1045C41.9754 72.1114 42.0915 72.1045 42.0915 72.1045C42.0915 72.1045 42.0847 72.6201 42.1291 72.8283C42.17 73.0434 42.17 73.3814 42.0676 73.4941C41.9618 73.6067 41.7774 74.1939 41.9891 74.2042C42.1973 74.211 42.3441 74.3305 42.3988 74.3681C42.4534 74.4056 42.8358 74.3681 42.8358 74.3681C42.8358 74.3681 43.0372 74.392 43.1533 74.3851C43.2659 74.3783 43.4298 74.3442 43.4298 74.3442L43.9761 74.9041C43.9761 74.9041 43.9761 75.464 44.0375 75.5835C44.0956 75.7098 44.0785 75.9249 44.1331 76.0034C44.1877 76.0853 44.3618 76.1604 44.3618 76.1604C44.3618 76.1604 44.3243 76.2902 44.5633 76.396C44.7988 76.4984 44.8876 76.5701 44.8876 76.5701C44.8876 76.5701 45.3485 76.8228 45.4373 76.9969C45.5226 77.171 45.7445 77.6182 45.7753 78.5878C45.8128 79.5574 45.3758 79.6257 45.3758 79.6257C45.3758 79.6257 45.229 79.9022 45.4441 79.8988C45.6626 79.892 46.1542 79.933 46.1884 79.4857C46.2225 79.0419 46.3079 77.7138 46.1884 77.2768C46.1884 77.2768 46.4922 77.9255 46.4342 78.8848C46.3693 79.8476 45.9084 80.09 45.9084 80.09C45.9084 80.09 45.6797 80.247 45.8367 80.3426C45.9938 80.4382 46.738 80.5509 46.8712 80.23C47.0009 79.9056 47.0794 79.7657 47.0794 79.7657L47.0351 78.9224C47.0351 78.9224 47.0726 78.202 47.1853 77.8811C47.2979 77.5568 47.2535 76.8057 47.2262 76.6657C47.2023 76.5223 47.3765 76.4882 47.5608 76.4472C47.7452 76.4028 48.5304 76.4131 49.0493 76.553C49.5649 76.693 50.2682 76.6316 50.6164 76.594C50.968 76.5599 51.7737 76.8398 53.1496 75.6688C53.1496 75.6688 53.3579 76.594 53.4398 76.7681C53.5183 76.9457 53.7095 77.3622 53.5969 78.0621C53.4842 78.7585 52.8731 79.6359 52.8731 79.6359C52.8731 79.6359 52.4975 80.0832 52.3063 80.1378C52.1152 80.189 52.1561 80.486 52.4122 80.486C52.6682 80.486 53.2862 80.5748 53.3818 80.3119C53.4808 80.049 53.4876 79.8681 53.6003 79.8066C53.7129 79.7452 53.8017 79.5437 53.8119 79.4379C53.8222 79.3355 54.2933 78.4171 54.2933 78.4171L54.7201 77.7241C54.7201 77.7241 54.8771 77.6831 54.9113 77.9118C54.9488 78.1372 54.983 79.1511 54.9556 79.2467C54.9317 79.3423 54.6859 79.8339 54.6859 79.8339L54.3616 80.1412C54.3616 80.1412 54.2831 80.4348 54.5972 80.428C54.9113 80.4212 55.3653 80.4792 55.4268 80.2163C55.4882 79.9534 55.5156 79.8237 55.5838 79.7452C55.6555 79.6632 55.6828 79.4277 55.6555 79.2979C55.6282 79.1716 55.6794 78.1269 55.7614 77.8026C55.8399 77.4817 56.0481 76.7989 55.9082 76.5189C55.7682 76.239 55.5497 75.7439 55.6999 75.3752C55.8467 75.0099 56.1984 74.3066 56.2223 73.5555C56.2223 73.5555 56.2735 74.8699 56.3076 75.027C56.3452 75.184 56.4783 75.7576 56.4783 75.8395C56.4783 75.9214 56.4408 76.1912 56.5466 76.2867C56.6524 76.3823 56.6729 76.4882 56.7753 76.6657C56.8812 76.8364 56.888 76.5599 56.8982 76.4882C56.9085 76.4199 57.0894 76.5496 57.0894 76.5496C57.0894 76.5496 57.0382 76.0409 56.8709 75.8395C56.7036 75.6381 56.5227 75.2386 56.5466 74.5831C56.5739 73.9276 56.8026 71.9441 56.4066 71.4866C56.014 71.0325 55.3756 71.0769 55.3756 71.0769C55.3756 71.0769 54.9761 70.418 54.0748 70.4829C53.1701 70.5443 51.644 71.234 50.9715 71.2852C50.2989 71.3364 48.7148 71.2476 48.469 71.2339C48.2231 71.2169 45.963 71.2101 45.847 71.2101C45.7309 71.2101 44.7988 71.1145 44.7647 71.0359C44.7647 71.0359 45.2461 70.7389 45.1198 70.237C45.0003 69.7386 44.8944 70.1688 44.8944 70.2917C44.8944 70.4146 44.7988 70.7901 44.3857 70.7799C43.9761 70.7696 44.0785 70.5887 43.8361 70.5443C43.5903 70.4999 42.5865 70.5068 42.3749 70.7082C42.1666 70.9096 41.8696 70.7901 41.7467 70.6297C41.6238 70.4726 41.5214 70.2917 41.5282 70.1722C41.535 70.0595 41.1663 70.2234 41.4155 70.6809C41.6613 71.1349 42.1393 71.2237 42.1393 71.2237C42.1393 71.2237 42.2349 71.3193 42.2076 71.4695" fill="#161B1D"/>
</g>
<defs>
<clipPath id="clip0_583_833">
<rect width="140" height="140" fill="white"/>
</clipPath>
</defs>
</svg>
